<svg width="274" height="178" viewBox="0 0 274 178" fill="none" xmlns="http://www.w3.org/2000/svg">
<path fill-rule="evenodd" clip-rule="evenodd" d="M50.1249 70.9665C46.3321 85.0052 44.6448 102.992 51.3913 116.49C63.4169 140.55 90.7302 164.653 116.711 170.841C136.417 175.535 170.266 177.989 188.363 166.591C206.292 155.298 214.873 143.04 220.144 121.639C225.455 100.076 230.811 79.4391 223.453 57.3584C219.077 44.2251 208.45 34.4874 198.82 25.361C175.216 2.99098 123.375 -5.68967 95.142 9.91391C78.2055 19.2742 63.7795 37.6699 55.4209 56.2938C53.2085 61.2231 51.4212 66.1685 50.1249 70.9665ZM197.932 50.9217C205.93 53.28 210.972 59.286 214.291 66.8345C222.435 85.3585 213.679 112.294 190.775 112.294C172.602 112.294 161.927 95.316 164.804 77.6237C164.804 77.6237 168.304 64.423 174.804 57.3584C181.304 50.2938 193.487 49.6111 197.932 50.9217ZM126.5 140C107.5 147 92 140 84.5 133C77 126 72.5 114.5 75 99.2334C77.5 83.9668 87.7166 63.5 108.03 63.5C128.127 63.5 147.5 78.8016 147.5 99.0695C147.5 115.539 145.5 133 126.5 140Z" fill="#F2C9C9"/>
<path d="M51.3913 116.49C44.6448 102.992 46.3321 85.0052 50.1249 70.9665C51.4212 66.1685 53.2085 61.2231 55.4209 56.2938C45.5467 56.2938 35.3881 61.2235 28.0285 67.3501C15.6832 77.6272 8.57789 88.5805 4.24289 103.975C0.0667255 118.806 1.91131 140.422 8.20716 154.195C14.9255 168.891 33.3274 176.294 48.6926 176.294C71.0553 176.294 94.1616 170.841 116.711 170.841C90.7302 164.653 63.4169 140.55 51.3913 116.49Z" fill="#E09494"/>
<path fill-rule="evenodd" clip-rule="evenodd" d="M84.5 133C92 140 107.5 147 126.5 140C145.5 133 147.5 115.539 147.5 99.0695C147.5 78.8016 128.127 63.5 108.03 63.5C87.7166 63.5 77.5 83.9668 75 99.2334C72.5 114.5 77 126 84.5 133ZM129.5 96.7857C129.5 100.457 126.579 102.047 123.733 101.389C123.101 101.243 122.591 100.726 122.219 100.037C122.049 99.8209 121.92 99.5598 121.871 99.2334C121.296 97.5604 121.368 95.43 122.24 94.7324C122.471 94.1143 122.789 93.7063 123.196 93.7063C123.685 93.7063 124.321 93.7226 125 93.7905C125.003 93.7908 125.007 93.7911 125.01 93.7915C127.059 93.9977 129.5 94.674 129.5 96.7857Z" fill="#FFFEFE"/>
<path fill-rule="evenodd" clip-rule="evenodd" d="M214.291 66.8345C210.972 59.286 205.93 53.28 197.932 50.9217C193.487 49.6111 181.304 50.2938 174.804 57.3584C168.304 64.423 164.804 77.6237 164.804 77.6237C161.927 95.316 172.602 112.294 190.775 112.294C213.679 112.294 222.435 85.3585 214.291 66.8345ZM206.774 75.5657C206.774 78.6834 203.406 78.7587 201 77.6237C200.905 77.5787 200.813 77.5313 200.723 77.4816C199.257 77.3759 197.932 76.7861 197.932 75C197.932 71 202.019 67.8461 204.144 68.9074C207.281 70.4746 206.774 72.4952 206.774 75.5657Z" fill="white"/>
<path d="M201 77.6237C203.406 78.7587 206.774 78.6834 206.774 75.5657C206.774 72.4952 207.281 70.4746 204.144 68.9074C202.019 67.8461 197.932 71 197.932 75C197.932 76.7861 199.257 77.3759 200.723 77.4816C200.813 77.5313 200.905 77.5787 201 77.6237Z" fill="white"/>
<path d="M123.733 101.389C126.579 102.047 129.5 100.457 129.5 96.7857C129.5 94.674 127.059 93.9977 125.01 93.7915C125.007 93.7911 125.003 93.7908 125 93.7905C124.74 93.7905 122.426 94.5836 122.24 94.7324C121.794 95.9252 121.674 97.9001 121.871 99.2334C121.969 99.5175 122.085 99.7884 122.219 100.037C122.767 100.733 123.733 100.96 123.733 101.389Z" fill="white"/>
<path d="M245.098 58.1828L266.205 59.211C266.205 75.2938 277 88 269 105.645C264.158 107.528 249.022 105.645 243.892 105.645C251 90 245.098 74.0969 245.098 58.1828Z" fill="#C7EBF0"/>
<path d="M116.711 170.841C136.417 175.535 170.266 177.989 188.363 166.591C206.292 155.298 214.873 143.04 220.144 121.639C225.455 100.076 230.811 79.4391 223.453 57.3584C219.077 44.2251 208.45 34.4874 198.82 25.361C175.216 2.99098 123.375 -5.68967 95.142 9.91391C78.2055 19.2742 63.7795 37.6699 55.4209 56.2938M116.711 170.841C90.7302 164.653 63.4169 140.55 51.3913 116.49C44.6448 102.992 46.3321 85.0052 50.1249 70.9665C51.4212 66.1685 53.2085 61.2231 55.4209 56.2938M116.711 170.841C94.1616 170.841 71.0553 176.294 48.6926 176.294C33.3274 176.294 14.9255 168.891 8.20716 154.195C1.91131 140.422 0.0667255 118.806 4.24289 103.975C8.57789 88.5805 15.6832 77.6272 28.0285 67.3501C35.3881 61.2235 45.5467 56.2938 55.4209 56.2938M158.804 151.294C167.5 159 178 157 184.804 146.294M125 93.7905C124.74 93.7905 122.426 94.5836 122.24 94.7324M125 93.7905C124.321 93.7226 123.685 93.7063 123.196 93.7063M125 93.7905C125.003 93.7908 125.007 93.7911 125.01 93.7915M121.871 99.2334C121.296 97.5604 121.368 95.43 122.24 94.7324M121.871 99.2334C121.92 99.5598 122.049 99.8209 122.219 100.037M121.871 99.2334C121.969 99.5175 122.085 99.7884 122.219 100.037M121.871 99.2334C121.674 97.9001 121.794 95.9252 122.24 94.7324M123.733 101.389C126.579 102.047 129.5 100.457 129.5 96.7857C129.5 94.674 127.059 93.9977 125.01 93.7915M123.733 101.389C123.101 101.243 122.591 100.726 122.219 100.037M123.733 101.389C123.733 100.96 122.767 100.733 122.219 100.037M123.196 93.7063C122.789 93.7063 122.471 94.1143 122.24 94.7324M123.196 93.7063C123.687 93.7063 124.327 93.7227 125.01 93.7915M201 70.5C198.02 71.4715 197.672 75.7887 200.723 77.4816M204.576 77C204.576 77 202.541 77.6127 200.723 77.4816M200.723 77.4816C200.813 77.5313 200.905 77.5787 201 77.6237C203.406 78.7587 206.774 78.6834 206.774 75.5657C206.774 72.4952 207.281 70.4746 204.144 68.9074C202.019 67.8461 197.932 71 197.932 75C197.932 76.7861 199.257 77.3759 200.723 77.4816ZM228.213 82.1267C233.566 79.4501 245.098 75.1949 245.098 68M249.5 67.0171C251.732 65.5 251.473 64.0341 255.987 67.0171C260.5 70 261.259 67.705 263 66.8345M250.526 79.1115C251.412 78.3237 254.303 76.6014 255.953 78C257.214 79.0684 257.227 79.748 259 80.5C261.894 81.7275 263.963 80.5748 264.5 79.5M251.732 94.7906C251.732 93.4799 254.882 90.7383 255.953 92.0769C256.297 92.5067 256.369 93.4332 256.891 94.1541C259.255 97.418 266.01 92.0769 267 92.0769M108.03 63.5C87.7166 63.5 77.5 83.9668 75 99.2334C72.5 114.5 77 126 84.5 133C92 140 107.5 147 126.5 140C145.5 133 147.5 115.539 147.5 99.0695C147.5 78.8016 128.127 63.5 108.03 63.5ZM164.804 77.6237C164.804 77.6237 168.304 64.423 174.804 57.3584C181.304 50.2938 193.487 49.6111 197.932 50.9217C205.93 53.28 210.972 59.286 214.291 66.8345C222.435 85.3585 213.679 112.294 190.775 112.294C172.602 112.294 161.927 95.316 164.804 77.6237ZM245.098 58.1828L266.205 59.211C266.205 75.2938 277 88 269 105.645C264.158 107.528 249.022 105.645 243.892 105.645C251 90 245.098 74.0969 245.098 58.1828Z" stroke="black" stroke-width="3" stroke-linecap="round"/>
</svg>
