<svg width="205" height="180" viewBox="0 0 205 180" fill="none" xmlns="http://www.w3.org/2000/svg">
<path d="M47.1232 58.216C47.68 58.1885 48.1694 58.3967 48.5791 58.7544C49.7871 60.2408 50.4763 61.9625 48.4618 61.9625C47.3465 61.9625 46.2309 61.6215 46.2309 60.6512C46.2309 60.6161 46.2306 60.5767 46.2303 60.5336C46.2258 59.855 46.2153 58.2608 47.1232 58.216Z" fill="#D7F3C5"/>
<path d="M118.705 100.717C122.671 100.717 125.717 100.244 129.48 99.0828C140.982 95.5334 151.808 80.1504 153.633 68.2519C157.114 45.5586 132.169 18.5693 114.585 20.6433C97 22.7174 90.423 36.6848 88.6202 44.6406C86.9915 51.8278 85.5604 58.7786 86.1075 66.1859C86.6667 73.7576 90.3844 83.4906 95.4112 89.2523C101.325 96.0302 109.554 100.717 118.705 100.717Z" fill="white"/>
<path fill-rule="evenodd" clip-rule="evenodd" d="M2 75.6115C2 50.2043 19.2661 17.5468 44.0349 9.30442C73.2158 -0.406196 111.388 -3.00458 136.612 17.7972C154.322 32.4032 164.004 49.9593 169.275 71.8874C170.51 77.0238 170.915 82.4772 170.634 88C169.968 101.059 165.46 114.506 158.994 125.069C146.463 145.54 122.468 159.351 98.5 163.448C93.6025 164.286 88.7061 164.717 83.9089 164.717C54.4211 164.717 21.297 142.465 10.3933 114.646C5.23786 101.493 2 89.8755 2 75.6115ZM118.705 100.717C122.671 100.717 125.717 100.244 129.48 99.0828C140.982 95.5334 151.808 80.1504 153.633 68.2519C157.114 45.5586 132.169 18.5693 114.585 20.6433C97 22.7174 90.423 36.6848 88.6202 44.6406C86.9915 51.8278 85.5604 58.7786 86.1075 66.1859C86.6667 73.7576 90.3844 83.4906 95.4112 89.2523C101.325 96.0302 109.554 100.717 118.705 100.717ZM62.0779 105.845C52.7718 114.773 36.5548 117.458 26.6346 107.574C12.7065 93.6964 -0.0389118 36.7175 31.9785 36.7175C44.6971 36.7175 52.6557 37.7175 62.0779 44.2175C71.5 50.7174 75.8704 55.5983 78.2237 63.5447C83.9475 82.8718 72.7162 95.6375 62.0779 105.845ZM48.5791 58.7544C48.1694 58.3967 47.68 58.1885 47.1232 58.216C46.2153 58.2608 46.2258 59.855 46.2303 60.5336C46.2306 60.5767 46.2309 60.6161 46.2309 60.6512C46.2309 61.6215 47.3465 61.9625 48.4618 61.9625C50.4763 61.9625 49.7871 60.2408 48.5791 58.7544Z" fill="#D7F3C5"/>
<path fill-rule="evenodd" clip-rule="evenodd" d="M26.6346 107.574C36.5548 117.458 52.7718 114.773 62.0779 105.845C72.7162 95.6375 83.9475 82.8718 78.2237 63.5447C75.8704 55.5983 71.5 50.7174 62.0779 44.2175C52.6557 37.7175 44.6971 36.7175 31.9785 36.7175C-0.0389118 36.7175 12.7065 93.6964 26.6346 107.574ZM47.1232 58.216C47.68 58.1885 48.1694 58.3967 48.5791 58.7544C49.7871 60.2408 50.4763 61.9625 48.4618 61.9625C47.3465 61.9625 46.2309 61.6215 46.2309 60.6512C46.2309 60.6161 46.2306 60.5767 46.2303 60.5336C46.2258 59.855 46.2153 58.2608 47.1232 58.216Z" fill="white"/>
<path d="M98.5 163.448C106 167.475 114.736 173.879 122.846 176.397C141.838 182.294 176.825 170.488 188.554 155.864C192.642 150.766 196.293 146.353 198.887 140.303C201.775 133.57 204.615 125.591 202.302 118.234C200.832 113.558 196.703 108.754 193.226 105.538C187.071 99.8448 177.538 92.6954 170.634 88C169.968 101.059 165.46 114.506 158.994 125.069C146.463 145.54 122.468 159.351 98.5 163.448Z" fill="#82AF67"/>
<path d="M105 53.4928C105 55.7947 109.692 56.3538 109.74 54.9658C109.782 53.7566 110.635 47.2946 109.003 46.8869C103.945 45.6238 104.548 51.8355 109.266 51.8355M44 61.5878C44 63.3743 44.7685 62.9564 45.7847 64.023C46.252 64.5135 48.6437 65.015 49.255 64.5017C50.521 63.4387 50.0928 60.076 48.5791 58.7544M48.5791 58.7544C48.1694 58.3967 47.68 58.1885 47.1232 58.216C46.2153 58.2608 46.2258 59.855 46.2303 60.5336C46.2306 60.5767 46.2309 60.6161 46.2309 60.6512C46.2309 61.6215 47.3465 61.9625 48.4618 61.9625C50.4763 61.9625 49.7871 60.2408 48.5791 58.7544ZM48.5791 58.7544C47.8205 57.821 46.8574 56.9804 46.2309 56.7174M158 98.7174C158 104.065 156.498 111.665 151.778 114.756C148.017 117.218 140.265 115.672 136 115.672M98.5 163.448C106 167.475 114.736 173.879 122.846 176.397C141.838 182.294 176.825 170.488 188.554 155.864C192.642 150.766 196.293 146.353 198.887 140.303C201.775 133.57 204.615 125.591 202.302 118.234C200.832 113.558 196.703 108.754 193.226 105.538C187.071 99.8448 177.538 92.6954 170.634 88M98.5 163.448C93.6025 164.286 88.7061 164.717 83.9089 164.717C54.4211 164.717 21.297 142.465 10.3933 114.646C5.23786 101.493 2 89.8755 2 75.6115C2 50.2043 19.2661 17.5468 44.0349 9.30442C73.2158 -0.406196 111.388 -3.00458 136.612 17.7972C154.322 32.4032 164.004 49.9593 169.275 71.8874C170.51 77.0238 170.915 82.4772 170.634 88M98.5 163.448C122.468 159.351 146.463 145.54 158.994 125.069C165.46 114.506 169.968 101.059 170.634 88M26.6346 107.574C36.5548 117.458 52.7718 114.773 62.0779 105.845C72.7162 95.6375 83.9475 82.8718 78.2237 63.5447C75.8704 55.5983 71.5 50.7174 62.0779 44.2175C52.6557 37.7175 44.6971 36.7175 31.9785 36.7175C-0.0389118 36.7175 12.7065 93.6964 26.6346 107.574ZM118.705 100.717C122.671 100.717 125.717 100.244 129.48 99.0828C140.982 95.5334 151.808 80.1504 153.633 68.2519C157.114 45.5586 132.169 18.5693 114.585 20.6433C97 22.7174 90.423 36.6848 88.6202 44.6406C86.9915 51.8278 85.5604 58.7786 86.1075 66.1859C86.6667 73.7576 90.3844 83.4906 95.4112 89.2523C101.325 96.0302 109.554 100.717 118.705 100.717Z" stroke="black" stroke-width="3" stroke-linecap="round"/>
</svg>
