<svg width="188" height="205" viewBox="0 0 188 205" fill="none" xmlns="http://www.w3.org/2000/svg">
<path fill-rule="evenodd" clip-rule="evenodd" d="M8.03704 116.548C15.9478 131.823 31.1593 143.485 47.6061 148.503C64.8083 153.751 85.9231 158.302 104.5 154.725C109.127 153.834 113.597 152.439 117.81 150.425C147.138 136.402 169.669 106.445 166.744 71.9977C165.833 61.2637 162.45 50.0937 156.03 38.834C151.542 27.9396 144.509 19.7762 134.603 13.3824C123.448 6.18184 111.023 2.61711 97.7518 2.08354C74.2218 1.13754 55 3.5 34.0557 17.0851C13.1113 30.6701 -8.15352 75.48 8.03704 116.548ZM82.1565 84.1032C91.5212 90.8413 101.742 91.2245 112.964 90.9327C133.401 90.4013 149.054 75.3236 149.968 55.1024C150.888 34.7375 131.888 12.7619 99.0262 26.8451C74.9163 26.8451 63.7886 70.8871 82.1565 84.1032ZM36.3333 75.5155C43.6715 70.7365 56.877 73.7771 64.6245 76.3505C86.5473 83.6323 95.5484 108.653 80.6844 126.601C70.8103 138.524 57.6471 139.429 43.5533 133.187C26.3292 125.559 13.3965 99.8225 36.3333 75.5155Z" fill="#E5C4F1"/>
<path fill-rule="evenodd" clip-rule="evenodd" d="M112.964 90.9327C101.742 91.2245 91.5212 90.8413 82.1565 84.1032C63.7886 70.8871 74.9163 26.8451 99.0262 26.8451C131.888 12.7619 150.888 34.7375 149.968 55.1024C149.054 75.3236 133.401 90.4013 112.964 90.9327ZM95.6323 55.7703C95.8076 56.0444 95.9476 56.2635 95.4384 56.0203C91.6636 54.2181 87.5258 58.0824 89.5172 61.6745C91.6635 65.5458 97.8628 65.1259 102.69 64.7989C103.91 64.7163 105.043 64.6396 106 64.6396C106 60.8629 105.593 47 99.2182 47C94.1359 47 93.478 51.968 95.5072 55.5667C95.5451 55.6339 95.5898 55.7038 95.6323 55.7703Z" fill="white"/>
<path d="M99.2182 47C105.593 47 106 60.8629 106 64.6396C105.043 64.6396 103.91 64.7163 102.69 64.7989C97.8628 65.1259 91.6635 65.5458 89.5172 61.6745C87.5258 58.0824 91.6636 54.2181 95.4384 56.0203C95.9476 56.2635 95.8076 56.0444 95.6323 55.7703C95.5898 55.7038 95.5451 55.6339 95.5072 55.5667C93.478 51.968 94.1359 47 99.2182 47Z" fill="#FF0000"/>
<path fill-rule="evenodd" clip-rule="evenodd" d="M36.3333 75.5155C43.6715 70.7365 56.877 73.7771 64.6245 76.3505C86.5473 83.6323 95.5484 108.653 80.6844 126.601C70.8103 138.524 57.6471 139.429 43.5533 133.187C26.3292 125.559 13.3965 99.8225 36.3333 75.5155ZM58.9095 110.882C59.7497 110.843 60.4686 110.811 60.9998 110.811C60.9998 106.703 60.5092 91.6171 53.5093 95.7289C51.9672 96.6347 52.3917 100.164 52.6648 101.464C52.6663 101.471 52.6678 101.478 52.6693 101.485C52.7454 101.847 52.7719 101.973 52.736 101.995C52.6859 102.025 52.5148 101.852 52.1882 101.832C48.7086 101.615 44.9998 102.196 44.9998 106.735C44.9998 111.514 54.0139 111.104 58.9095 110.882Z" fill="white"/>
<path d="M52.6648 101.464C52.3917 100.164 51.9672 96.6347 53.5093 95.7289C60.5092 91.6171 60.9998 106.703 60.9998 110.811C60.4686 110.811 59.7497 110.843 58.9095 110.882C54.0139 111.104 44.9998 111.514 44.9998 106.735C44.9998 102.196 48.7086 101.615 52.1882 101.832C52.5148 101.852 52.6859 102.025 52.736 101.995C52.7719 101.973 52.7454 101.847 52.6693 101.485L52.6648 101.464Z" fill="#FF0000"/>
<path d="M177.426 141.439C183.115 130.544 188.044 116.678 185.141 104.323C182.26 92.0605 175.84 80.6918 166.744 71.9977C169.669 106.445 147.138 136.402 117.81 150.425C113.597 152.439 109.127 153.834 104.5 154.725C116.723 163.06 130.462 165.41 142.945 162.492C156.34 159.36 170.54 154.629 177.426 141.439Z" fill="#A76BBC"/>
<path d="M89.9998 125.386C107.465 129.356 112 125.793 112 117M156 38C156 29.0394 161.029 15.8807 158.064 7M91.3338 203C93.5455 203 95.7639 200.948 94.7447 198.559C91.6158 191.227 84.8375 186.424 80.836 179.632C77.6796 174.275 78.0246 156 86.4071 156M104.5 154.725C116.723 163.06 130.462 165.41 142.945 162.492C156.34 159.36 170.54 154.629 177.426 141.439C183.115 130.544 188.044 116.678 185.141 104.323C182.26 92.0605 175.84 80.6918 166.744 71.9977M104.5 154.725C85.9231 158.302 64.8083 153.751 47.6061 148.503C31.1593 143.485 15.9478 131.823 8.03704 116.548C-8.15352 75.48 13.1113 30.6701 34.0557 17.0851C55 3.5 74.2218 1.13754 97.7518 2.08354C111.023 2.61711 123.448 6.18184 134.603 13.3824C144.509 19.7762 151.542 27.9396 156.03 38.834C162.45 50.0937 165.833 61.2637 166.744 71.9977M104.5 154.725C109.127 153.834 113.597 152.439 117.81 150.425C147.138 136.402 169.669 106.445 166.744 71.9977M52.6648 101.464C52.3917 100.164 51.9672 96.6347 53.5093 95.7289C60.5092 91.6171 60.9998 106.703 60.9998 110.811C60.4686 110.811 59.7497 110.843 58.9095 110.882C54.0139 111.104 44.9998 111.514 44.9998 106.735C44.9998 102.196 48.7086 101.615 52.1882 101.832C52.5148 101.852 52.6859 102.025 52.736 101.995C52.7719 101.973 52.7454 101.847 52.6693 101.485M52.6648 101.464L52.6693 101.485M52.6648 101.464C52.6663 101.471 52.6678 101.478 52.6693 101.485M64.6245 76.3505C56.877 73.7771 43.6715 70.7365 36.3333 75.5155C13.3965 99.8225 26.3292 125.559 43.5533 133.187C57.6471 139.429 70.8103 138.524 80.6844 126.601C95.5484 108.653 86.5473 83.6323 64.6245 76.3505ZM82.1565 84.1032C91.5212 90.8413 101.742 91.2245 112.964 90.9327C133.401 90.4013 149.054 75.3236 149.968 55.1024C150.888 34.7375 131.888 12.7619 99.0262 26.8451C74.9163 26.8451 63.7886 70.8871 82.1565 84.1032ZM95.4384 56.0203C91.6636 54.2181 87.5258 58.0824 89.5172 61.6745C91.6635 65.5458 97.8628 65.1259 102.69 64.7989C103.91 64.7163 105.043 64.6396 106 64.6396C106 60.8629 105.593 47 99.2182 47C94.1359 47 93.478 51.968 95.5072 55.5667C95.5451 55.6339 95.5898 55.7038 95.6323 55.7703C95.8076 56.0444 95.9476 56.2635 95.4384 56.0203Z" stroke="black" stroke-width="3" stroke-linecap="round"/>
</svg>
