<svg width="158" height="118" viewBox="0 0 158 118" fill="none" xmlns="http://www.w3.org/2000/svg">
<path d="M37.7923 47.0928C37.1897 46.318 36.9653 46.0213 36.9179 45.1858C36.8719 45.1739 36.8257 45.1628 36.7794 45.1525C35.8299 44.9416 36.0949 43.6206 36.1374 42.8556C36.155 42.5378 37.1171 41.0758 37.4214 41.0579C38.184 41.0131 39.3715 40.8631 40.1036 41.0722C41.6407 41.5114 43.8415 41.0221 43.8415 43.2408C43.8415 44.7977 43.8799 45.9923 43.266 47.0834C43.0421 47.4813 42.7315 47.8655 42.3007 48.2485C40.8322 49.5538 38.7952 48.3823 37.7923 47.0928Z" fill="#EF9C3A"/>
<path d="M151.008 61.7868C149.623 60.101 145 56 137.5 57C130 58 129.5 61.5 121.964 60.6757C121.349 74.4385 117 89.1307 109.021 98.1073C106.396 101.061 102.732 104.172 98.7172 106.825C102.637 114.665 118.282 116.757 125.462 115.959C129.161 115.548 138.436 112.516 141.28 110.131C147.25 105.124 152.916 99.2046 154.594 90.8174C156.498 81.2958 157.554 69.7555 151.008 61.7868Z" fill="#D4AB7C"/>
<path fill-rule="evenodd" clip-rule="evenodd" d="M120.165 41.8942C116.91 29.9567 110.451 20.9464 101.933 12.4281C87.1002 -2.40452 47.5 0.499994 34.8127 6.25674C22.1254 12.0135 7.38699 27.4753 3.01385 47.1544C-3.1713 74.9876 19.8772 105.21 46.745 111.927C58.5881 114.887 72.855 115.659 84.7256 113.175C89.1767 112.243 94.1724 109.828 98.7172 106.825C102.732 104.172 106.396 101.061 109.021 98.1073C117 89.1307 121.349 74.4385 121.964 60.6757C122.265 53.9314 121.67 47.4102 120.165 41.8942ZM37.1895 27.5327C42.3007 27.5 51.3164 30.7432 55.9978 40.9571C59.7194 49.0771 56.7801 63.4423 43.7801 67.4423C36.0045 69.8348 20.7124 68.429 17.7751 58.4421C15.932 52.1754 16.1117 46.5109 17.8761 40.1591C20.9868 28.9605 32.0783 27.5654 37.1895 27.5327ZM88.8264 66.624C86.6554 66.624 84.9526 66.3114 83.0081 65.4927C78.4767 63.5847 75.4478 60.6188 73.8262 56.0784C70.4371 46.589 71.3605 30.4792 82.3819 26.8054C85.4471 25.7836 88.7438 25.4289 91.3719 25.7145C94 26 101.603 29.5986 106.109 33.26C110.46 36.7951 111.918 41.4747 111.918 46.9066C111.918 51.8302 108.925 58.7236 104.736 61.6239C99.8412 65.0124 94.7604 66.624 88.8264 66.624Z" fill="#DCC8B1"/>
<path d="M46.3884 95.7001C42.0198 95.7001 72.4119 113.462 79.2871 99.7121M121.964 60.6757C121.349 74.4385 117 89.1307 109.021 98.1073C106.396 101.061 102.732 104.172 98.7172 106.825M121.964 60.6757C122.265 53.9314 121.67 47.4102 120.165 41.8942C116.91 29.9567 110.451 20.9464 101.933 12.4281C87.1002 -2.40452 47.5 0.499994 34.8127 6.25674C22.1254 12.0135 7.38699 27.4753 3.01385 47.1544C-3.1713 74.9876 19.8772 105.21 46.745 111.927C58.5881 114.887 72.855 115.659 84.7256 113.175C89.1767 112.243 94.1724 109.828 98.7172 106.825M121.964 60.6757C129.5 61.5 130 58 137.5 57C145 56 149.623 60.101 151.008 61.7868C157.554 69.7555 156.498 81.2958 154.594 90.8174C152.916 99.2046 147.25 105.124 141.28 110.131C138.436 112.516 129.161 115.548 125.462 115.959C118.282 116.757 102.637 114.665 98.7172 106.825M89.0843 41.6363C86.8207 41.6363 84.8626 41.1439 84.8626 43.8791C84.8626 44.7082 84.584 46.1547 84.9212 46.9134C85.3818 47.9497 86.5517 47.705 87.5011 47.705C88.6693 47.705 89.612 48.1088 89.612 46.7669C89.612 46.1104 89.9145 43.5132 88.9377 43.2341C86.3804 42.5034 86.9734 45.6585 86.9734 47.1773M42.5575 44.91C42.5575 42.9361 39.3603 43.1124 37.935 43.1124C37.1445 43.1124 36.9078 44.1268 36.9078 44.7816C36.9078 44.93 36.9109 45.0636 36.9179 45.1858M36.9179 45.1858C36.9653 46.0213 37.1897 46.318 37.7923 47.0928C38.7952 48.3823 40.8322 49.5538 42.3007 48.2485C42.7315 47.8655 43.0421 47.4813 43.266 47.0834M36.9179 45.1858C36.8719 45.1739 36.8257 45.1628 36.7794 45.1525C35.8299 44.9416 36.0949 43.6206 36.1374 42.8556C36.155 42.5378 37.1171 41.0758 37.4214 41.0579C38.184 41.0131 39.3715 40.8631 40.1036 41.0722C41.6407 41.5114 43.8415 41.0221 43.8415 43.2408C43.8415 44.7977 43.8799 45.9923 43.266 47.0834M36.9179 45.1858C37.8345 45.4217 38.6795 45.9482 39.59 46.2083C41.3221 46.7032 41.6401 47.0253 43.266 47.0834M43.266 47.0834C43.4415 47.0897 43.6322 47.0928 43.8415 47.0928M55.9978 40.9571C51.3164 30.7432 42.3007 27.5 37.1895 27.5327C32.0783 27.5654 20.9868 28.9605 17.8761 40.1591C16.1117 46.5109 15.932 52.1754 17.7751 58.4421C20.7124 68.429 36.0045 69.8348 43.7801 67.4423C56.7801 63.4423 59.7194 49.0771 55.9978 40.9571ZM83.0081 65.4927C84.9526 66.3114 86.6554 66.624 88.8264 66.624C94.7604 66.624 99.8412 65.0124 104.736 61.6239C108.925 58.7236 111.918 51.8302 111.918 46.9066C111.918 41.4747 110.46 36.7951 106.109 33.26C101.603 29.5986 94 26 91.3719 25.7145C88.7438 25.4289 85.4471 25.7836 82.3819 26.8054C71.3605 30.4792 70.4371 46.589 73.8262 56.0784C75.4478 60.6188 78.4767 63.5847 83.0081 65.4927Z" stroke="black" stroke-width="3" stroke-linecap="round"/>
</svg>
