<svg width="268" height="209" viewBox="0 0 268 209" fill="none" xmlns="http://www.w3.org/2000/svg">
<path fill-rule="evenodd" clip-rule="evenodd" d="M202.894 172.457C212.294 153.658 213.538 131.976 213.25 111.062C213.215 108.573 213.159 106.094 213.093 103.633C211.805 55.9942 167.423 -5.50009 130.5 2.99999C93.5766 11.5001 72.5463 30.0117 60.9919 77.2796C57.6735 90.855 55.4092 107.919 56.345 124.556C57.6519 147.791 65.1998 170.194 84.8337 181.102C105.52 192.594 133.792 202.822 157.541 199.169C161.969 198.488 166.74 197.358 171.5 195.769C184.413 191.459 197.24 183.765 202.894 172.457ZM76.3236 72.2942C76.3236 55.6954 85.3347 44.1008 95.1674 40.5504C105 37 115.613 44.7888 122 57.5C130.571 74.5565 128.055 99.0606 108 100.78C87.6324 100.78 76.3236 93.6214 76.3236 72.2942ZM159.601 134.161C117.5 123.78 142.5 53.7795 178.445 71.5513C200 80.7795 202.133 105.862 194.5 120.28C186.499 135.392 174.048 134.964 159.601 134.161ZM101.854 143.279C88.6387 143.279 88.8726 169.417 101.55 169.417C111.425 169.417 114.5 144.5 101.854 143.279Z" fill="#F9F4C2"/>
<path d="M178.445 71.5513C142.5 53.7795 117.5 123.78 159.601 134.161C174.048 134.964 186.499 135.392 194.5 120.28C202.133 105.862 200 80.7795 178.445 71.5513Z" fill="white"/>
<path d="M95.1674 40.5504C85.3347 44.1008 76.3236 55.6954 76.3236 72.2942C76.3236 93.6214 87.6324 100.78 108 100.78C128.055 99.0606 130.571 74.5565 122 57.5C115.613 44.7888 105 37 95.1674 40.5504Z" fill="white"/>
<path d="M213.25 111.062C213.538 131.976 212.294 153.658 202.894 172.457C197.24 183.765 184.413 191.459 171.5 195.769C201.349 220.751 265.977 201.898 265.977 159.28C265.977 130.34 240.717 111.062 213.25 111.062Z" fill="#F1CF79"/>
<path d="M101.854 143.279C88.6387 143.279 88.8726 169.417 101.55 169.417C111.425 169.417 114.5 144.5 101.854 143.279Z" fill="#FFDEBF"/>
<path d="M13.5 56.5C8.5 59 9 60 2 58.5C6.46463 76.3585 8.48313 93.6673 9.77146 112C13 111 16.5 111 20.4355 109.847C19.9062 99.1535 19.3398 88.0641 17.6266 77.5C16.4838 70.4527 14.8946 63.4728 13.5 56.5Z" fill="#EABE8A"/>
<path d="M11.2822 118.965C13.6165 119.102 16.7137 118.965 19.1844 118.965C20.5235 118.965 20.679 114.765 20.4355 109.847C16.5 111 13 111 9.77146 112C10.0245 115.6 10.4772 118.917 11.2822 118.965Z" fill="#F77070"/>
<path d="M2 58.5C9 60 8.5 59 13.5 56.5C12.1072 52.3217 7.09997 45.4226 4.89966 41.4621C2.66899 37.4469 2 56.5225 2 58.5Z" fill="#EEE2C9"/>
<path d="M162.032 82.4929C162.032 84.5376 161.792 86.041 162.032 87.9637C162.194 89.26 165.831 90.9293 166.254 89.4496C166.638 88.1058 166.638 84.7822 166.254 83.4385C165.803 81.8615 161.402 82.4929 160.209 82.4929M101.854 53.3154C99.3826 53.3154 97.9898 60.0019 100.942 60.0019C102.363 60.0019 104.285 60.6039 104.285 58.7862C104.285 56.9499 102.521 57.0808 101.854 55.7469M56.5 124.78C56.4483 124.705 56.3967 124.63 56.345 124.556M2 58.5C9 60 8.5 59 13.5 56.5M2 58.5C2 56.5225 2.66899 37.4469 4.89966 41.4621C7.09997 45.4226 12.1072 52.3217 13.5 56.5M2 58.5C6.46463 76.3585 8.48313 93.6673 9.77146 112M13.5 56.5C14.8946 63.4728 16.4838 70.4527 17.6266 77.5M9.77146 112C10.0245 115.6 10.4772 118.917 11.2822 118.965C13.6165 119.102 16.7137 118.965 19.1844 118.965C20.5235 118.965 20.679 114.765 20.4355 109.847M9.77146 112C13 111 16.5 111 20.4355 109.847M20.4355 109.847C19.9062 99.1535 19.3398 88.0641 17.6266 77.5M17.6266 77.5C24.5 81 22.5 95.5 33 106C43.4164 116.416 49.9082 115.365 56.345 124.556M56.345 124.556C55.4092 107.919 57.6735 90.855 60.9919 77.2796C72.5463 30.0117 93.5766 11.5001 130.5 2.99999C167.423 -5.50009 211.805 55.9942 213.093 103.633C213.159 106.094 213.215 108.573 213.25 111.062M56.345 124.556C57.6519 147.791 65.1998 170.194 84.8337 181.102C105.52 192.594 133.792 202.822 157.541 199.169C161.969 198.488 166.74 197.358 171.5 195.769M213.25 111.062C213.538 131.976 212.294 153.658 202.894 172.457C197.24 183.765 184.413 191.459 171.5 195.769M213.25 111.062C240.717 111.062 265.977 130.34 265.977 159.28C265.977 201.898 201.349 220.751 171.5 195.769M95.1674 40.5504C85.3347 44.1008 76.3236 55.6954 76.3236 72.2942C76.3236 93.6214 87.6324 100.78 108 100.78C128.055 99.0606 130.571 74.5565 122 57.5C115.613 44.7888 105 37 95.1674 40.5504ZM178.445 71.5513C142.5 53.7795 117.5 123.78 159.601 134.161C174.048 134.964 186.499 135.392 194.5 120.28C202.133 105.862 200 80.7795 178.445 71.5513ZM101.854 143.279C88.6387 143.279 88.8726 169.417 101.55 169.417C111.425 169.417 114.5 144.5 101.854 143.279Z" stroke="black" stroke-width="3" stroke-linecap="round"/>
</svg>
