<svg xmlns="http://www.w3.org/2000/svg" viewBox="0 0 544 576" width="544" height="576" preserveAspectRatio="xMidYMid meet" style="width: 100%; height: 100%; transform: translate3d(0px, 0px, 0px);"><defs><clipPath id="__lottie_element_996"><rect width="544" height="576" x="0" y="0"></rect></clipPath><clipPath id="__lottie_element_998"><path d="M0,0 L544,0 L544,576 L0,576z"></path></clipPath><clipPath id="__lottie_element_1006"><path d="M0,0 L544,0 L544,576 L0,576z"></path></clipPath><clipPath id="__lottie_element_1128"><path fill="#ffffff" clip-rule="nonzero" d=" M79.1500015258789,-92.75 C79.1500015258789,-92.75 -62.5,-92.75 -62.5,-92.75 C-62.5,-92.75 -62.5,56.62300109863281 -62.5,56.62300109863281 C-62.5,56.62300109863281 79.1500015258789,56.62300109863281 79.1500015258789,56.62300109863281 C79.1500015258789,56.62300109863281 79.1500015258789,-92.75 79.1500015258789,-92.75" fill-opacity="1"></path></clipPath><clipPath id="__lottie_element_1134"><path d="M0,0 L544,0 L544,576 L0,576z"></path></clipPath><clipPath id="__lottie_element_1138"><path d="M0,0 L2880,0 L2880,1600 L0,1600z"></path></clipPath><clipPath id="__lottie_element_1139"><path fill="#ffffff" clip-rule="nonzero" d=" M2123.806884765625,461.5 C2123.806884765625,461.5 1904.5,461.5 1904.5,461.5 C1887.9310302734375,461.5 1874.5,474.9309997558594 1874.5,491.5 C1874.5,491.5 1874.5,631.302978515625 1874.5,631.302978515625 C1874.5,647.8720092773438 1887.9310302734375,661.302978515625 1904.5,661.302978515625 C1904.5,661.302978515625 2123.806884765625,661.302978515625 2123.806884765625,661.302978515625 C2140.3759765625,661.302978515625 2153.806884765625,647.8720092773438 2153.806884765625,631.302978515625 C2153.806884765625,631.302978515625 2153.806884765625,491.5 2153.806884765625,491.5 C2153.806884765625,474.9309997558594 2140.3759765625,461.5 2123.806884765625,461.5" fill-opacity="1"></path></clipPath><clipPath id="__lottie_element_1142"><path d="M0,0 L2880,0 L2880,1600 L0,1600z"></path></clipPath></defs><g clip-path="url(#__lottie_element_996)"><g clip-path="url(#__lottie_element_1134)" transform="matrix(1,0,0,1,0,-95)" opacity="1" style="display: block;"><g transform="matrix(1,0,0,1,253.5,332.5)" opacity="1" style="display: block;"><g opacity="1" transform="matrix(2,0,0,2,0,0)"><path fill="rgb(151,157,255)" fill-opacity="1" d=" M70,-35 C70,-35 70,35 70,35 C70,43.278499603271484 63.278499603271484,50 55,50 C55,50 -55,50 -55,50 C-63.278499603271484,50 -70,43.278499603271484 -70,35 C-70,35 -70,-35 -70,-35 C-70,-43.278499603271484 -63.278499603271484,-50 -55,-50 C-55,-50 55,-50 55,-50 C63.278499603271484,-50 70,-43.278499603271484 70,-35z"></path></g></g><g clip-path="url(#__lottie_element_1138)" transform="matrix(1,0,0,1,-1760.5,-228.5)" opacity="1" style="display: block;"><g clip-path="url(#__lottie_element_1139)"><g clip-path="url(#__lottie_element_1142)" transform="matrix(1,0,0,1,0,0)" opacity="0.2" style="display: block;"><g transform="matrix(1,0,0,1,1602,866.97998046875)" opacity="1" style="display: block;"><g opacity="1" transform="matrix(2,0,0,2,0,0)"><path fill="rgb(255,255,255)" fill-opacity="1" d=" M55,13.220000267028809 C55,13.220000267028809 38.08000183105469,0.8299999833106995 38.08000183105469,0.8299999833106995 C37.34000015258789,0.28999999165534973 36.45000076293945,0 35.540000915527344,0 C35.540000915527344,0 4.300000190734863,0 4.300000190734863,0 C1.9299999475479126,0 0,1.9299999475479126 0,4.300000190734863 C0,4.300000190734863 0,66.0999984741211 0,66.0999984741211 C0,68.47000122070312 1.9299999475479126,70.4000015258789 4.300000190734863,70.4000015258789 C4.300000190734863,70.4000015258789 52.45000076293945,70.4000015258789 52.45000076293945,70.4000015258789 C54.83000183105469,70.4000015258789 56.7599983215332,68.47000122070312 56.7599983215332,66.0999984741211 C56.7599983215332,66.0999984741211 56.7599983215332,16.690000534057617 56.7599983215332,16.690000534057617 C56.7599983215332,15.319999694824219 56.099998474121094,14.029999732971191 55,13.220000267028809 C55,13.220000267028809 55,13.220000267028809 55,13.220000267028809z M48.15,18.87 C48.15,18.87 48.15,21.71 48.15,21.71 C48.15,21.71 35.29,21.71 35.29,21.71 C35.29,21.71 35.29,9.98 35.29,9.98 C35.29,9.79 35.27,9.6 35.25,9.42 C35.25,9.42 48.15,18.87 48.15,18.87z M8.61,61.8 C8.61,61.8 8.61,8.6 8.61,8.6 C8.61,8.6 26.91,8.6 26.91,8.6 C26.76,9.03 26.68,9.49 26.68,9.97 C26.68,9.97 26.68,26.01 26.68,26.01 C26.68,28.38 28.61,30.31 30.98,30.31 C30.98,30.31 48.15,30.31 48.15,30.31 C48.15,30.31 48.15,61.8 48.15,61.8 C48.15,61.8 8.61,61.8 8.61,61.8z"></path><g opacity="1" transform="matrix(1,0,0,1,0,0)"></g><g opacity="1" transform="matrix(1,0,0,1,35.25,9.420000076293945)"></g><g opacity="1" transform="matrix(1,0,0,1,8.609999656677246,8.600000381469727)"></g></g></g><g transform="matrix(1,0,0,1,2038.89990234375,432.8999938964844)" opacity="1" style="display: block;"><g opacity="1" transform="matrix(2,0,0,2,0,0)"><path fill="rgb(255,255,255)" fill-opacity="1" d=" M4.300000190734863,42.400001525878906 C4.300000190734863,42.400001525878906 60.939998626708984,42.400001525878906 60.939998626708984,42.400001525878906 C63.31999969482422,42.400001525878906 65.23999786376953,40.47999954223633 65.23999786376953,38.099998474121094 C65.23999786376953,38.099998474121094 65.23999786376953,4.300000190734863 65.23999786376953,4.300000190734863 C65.23999786376953,1.9299999475479126 63.31999969482422,0 60.939998626708984,0 C60.939998626708984,0 4.300000190734863,0 4.300000190734863,0 C1.9299999475479126,0 0,1.9299999475479126 0,4.300000190734863 C0,4.300000190734863 0,38.099998474121094 0,38.099998474121094 C0,40.47999954223633 1.9299999475479126,42.400001525878906 4.300000190734863,42.400001525878906 C4.300000190734863,42.400001525878906 4.300000190734863,42.400001525878906 4.300000190734863,42.400001525878906z M8.61,33.81 C8.61,33.81 8.61,13.85 8.61,13.85 C8.61,13.85 29.76,27.32 29.76,27.32 C30.46,27.77 31.26,27.99 32.07,27.99 C32.84,27.99 33.61,27.78 34.3,27.37 C34.3,27.37 56.64,13.83 56.64,13.83 C56.64,13.83 56.64,13.83 56.64,13.83 C56.64,13.83 56.64,33.81 56.64,33.81 C56.64,33.81 8.61,33.81 8.61,33.81z M16.38,8.6 C16.38,8.6 48.66,8.6 48.66,8.6 C48.66,8.6 32.12,18.63 32.12,18.63 C32.12,18.63 16.38,8.6 16.38,8.6z"></path><g opacity="1" transform="matrix(1,0,0,1,0,0)"></g><g opacity="1" transform="matrix(1,0,0,1,8.609999656677246,13.829999923706055)"></g><g opacity="1" transform="matrix(1,0,0,1,16.3799991607666,8.600000381469727)"></g></g></g><g transform="matrix(1,0,0,1,1770.340087890625,494.7799987792969)" opacity="1" style="display: block;"><g opacity="1" transform="matrix(2,0,0,2,0,0)"><path fill="rgb(255,255,255)" fill-opacity="1" d=" M7.289999961853027,20.280000686645508 C5.590000152587891,18.6299991607666 2.859999895095825,18.670000076293945 1.2100000381469727,20.3799991607666 C-0.4399999976158142,22.09000015258789 -0.4000000059604645,24.809999465942383 1.309999942779541,26.459999084472656 C1.309999942779541,26.459999084472656 14.329999923706055,39.029998779296875 14.329999923706055,39.029998779296875 C15.130000114440918,39.810001373291016 16.209999084472656,40.2400016784668 17.31999969482422,40.2400016784668 C17.510000228881836,40.2400016784668 17.700000762939453,40.220001220703125 17.899999618530273,40.20000076293945 C19.200000762939453,40.02000045776367 20.360000610351562,39.25 21.030000686645508,38.119998931884766 C21.030000686645508,38.119998931884766 39.68000030517578,6.480000019073486 39.68000030517578,6.480000019073486 C40.880001068115234,4.440000057220459 40.20000076293945,1.7999999523162842 38.150001525878906,0.6000000238418579 C36.11000061035156,-0.6100000143051147 33.470001220703125,0.07000000029802322 32.2599983215332,2.119999885559082 C32.2599983215332,2.119999885559082 16.3799991607666,29.049999237060547 16.3799991607666,29.049999237060547 C16.3799991607666,29.049999237060547 7.289999961853027,20.280000686645508 7.289999961853027,20.280000686645508z"></path></g></g><g transform="matrix(1,0,0,1,2058.360107421875,656.4199829101562)" opacity="1" style="display: block;"><g opacity="1" transform="matrix(2,0,0,2,0,0)"><path fill="rgb(255,255,255)" fill-opacity="1" d=" M38.150001525878906,0.6000000238418579 C36.11000061035156,-0.6100000143051147 33.470001220703125,0.07000000029802322 32.2599983215332,2.119999885559082 C32.2599983215332,2.119999885559082 16.3799991607666,29.049999237060547 16.3799991607666,29.049999237060547 C16.3799991607666,29.049999237060547 7.289999961853027,20.280000686645508 7.289999961853027,20.280000686645508 C5.590000152587891,18.6299991607666 2.859999895095825,18.670000076293945 1.2100000381469727,20.3799991607666 C-0.4399999976158142,22.09000015258789 -0.4000000059604645,24.809999465942383 1.309999942779541,26.459999084472656 C1.309999942779541,26.459999084472656 14.329999923706055,39.029998779296875 14.329999923706055,39.029998779296875 C15.130000114440918,39.810001373291016 16.209999084472656,40.2400016784668 17.31999969482422,40.2400016784668 C17.510000228881836,40.2400016784668 17.700000762939453,40.220001220703125 17.899999618530273,40.20000076293945 C19.200000762939453,40.02000045776367 20.360000610351562,39.25 21.030000686645508,38.119998931884766 C21.030000686645508,38.119998931884766 39.68000030517578,6.480000019073486 39.68000030517578,6.480000019073486 C40.880001068115234,4.440000057220459 40.20000076293945,1.7999999523162842 38.150001525878906,0.6000000238418579"></path></g></g><g transform="matrix(1,0,0,1,1890.0599365234375,519.9200439453125)" opacity="1" style="display: block;"><g opacity="1" transform="matrix(2,0,0,2,0,0)"><path fill="rgb(255,255,255)" fill-opacity="1" d=" M4.300000190734863,8.600000381469727 C4.300000190734863,8.600000381469727 65.47000122070312,8.600000381469727 65.47000122070312,8.600000381469727 C67.83999633789062,8.600000381469727 69.7699966430664,6.670000076293945 69.7699966430664,4.300000190734863 C69.7699966430664,1.9299999475479126 67.83999633789062,0 65.47000122070312,0 C65.47000122070312,0 4.300000190734863,0 4.300000190734863,0 C1.9299999475479126,0 0,1.9299999475479126 0,4.300000190734863 C0,6.670000076293945 1.9299999475479126,8.600000381469727 4.300000190734863,8.600000381469727"></path></g></g><g transform="matrix(1,0,0,1,1890.0599365234375,557.1800537109375)" opacity="1" style="display: block;"><g opacity="1" transform="matrix(2,0,0,2,0,0)"><path fill="rgb(255,255,255)" fill-opacity="1" d=" M4.300000190734863,8.600000381469727 C4.300000190734863,8.600000381469727 65.47000122070312,8.600000381469727 65.47000122070312,8.600000381469727 C67.83999633789062,8.600000381469727 69.7699966430664,6.670000076293945 69.7699966430664,4.300000190734863 C69.7699966430664,1.9299999475479126 67.83999633789062,0 65.47000122070312,0 C65.47000122070312,0 4.300000190734863,0 4.300000190734863,0 C1.9299999475479126,0 0,1.9299999475479126 0,4.300000190734863 C0,6.670000076293945 1.9299999475479126,8.600000381469727 4.300000190734863,8.600000381469727"></path></g></g><g transform="matrix(1,0,0,1,1982.4599609375,755.2400512695312)" opacity="1" style="display: block;"><g opacity="1" transform="matrix(2,0,0,2,0,0)"><path fill="rgb(255,255,255)" fill-opacity="1" d=" M65.47000122070312,0 C65.47000122070312,0 4.300000190734863,0 4.300000190734863,0 C1.9299999475479126,0 0,1.9299999475479126 0,4.300000190734863 C0,6.670000076293945 1.9299999475479126,8.600000381469727 4.300000190734863,8.600000381469727 C4.300000190734863,8.600000381469727 65.47000122070312,8.600000381469727 65.47000122070312,8.600000381469727 C67.83999633789062,8.600000381469727 69.7699966430664,6.670000076293945 69.7699966430664,4.300000190734863 C69.7699966430664,1.9299999475479126 67.83999633789062,0 65.47000122070312,0"></path></g></g><g transform="matrix(1,0,0,1,2043.320068359375,595.3200073242188)" opacity="1" style="display: block;"><g opacity="1" transform="matrix(2,0,0,2,0,0)"><path fill="rgb(255,255,255)" fill-opacity="1" d=" M14.710000038146973,0 C14.710000038146973,0 4.300000190734863,0 4.300000190734863,0 C1.9299999475479126,0 0,1.9299999475479126 0,4.300000190734863 C0,6.670000076293945 1.9299999475479126,8.600000381469727 4.300000190734863,8.600000381469727 C4.300000190734863,8.600000381469727 14.710000038146973,8.600000381469727 14.710000038146973,8.600000381469727 C17.09000015258789,8.600000381469727 19.020000457763672,6.670000076293945 19.020000457763672,4.300000190734863 C19.020000457763672,1.9299999475479126 17.09000015258789,0 14.710000038146973,0"></path></g></g><g transform="matrix(1,0,0,1,2043.320068359375,631.4000244140625)" opacity="1" style="display: block;"><g opacity="1" transform="matrix(2,0,0,2,0,0)"><path fill="rgb(255,255,255)" fill-opacity="1" d=" M14.710000038146973,0 C14.710000038146973,0 4.300000190734863,0 4.300000190734863,0 C1.9299999475479126,0 0,1.9299999475479126 0,4.300000190734863 C0,6.670000076293945 1.9299999475479126,8.600000381469727 4.300000190734863,8.600000381469727 C4.300000190734863,8.600000381469727 14.710000038146973,8.600000381469727 14.710000038146973,8.600000381469727 C17.09000015258789,8.600000381469727 19.020000457763672,6.670000076293945 19.020000457763672,4.300000190734863 C19.020000457763672,1.9299999475479126 17.09000015258789,0 14.710000038146973,0"></path></g></g><g transform="matrix(1,0,0,1,2096.239990234375,595.3200073242188)" opacity="1" style="display: block;"><g opacity="1" transform="matrix(2,0,0,2,0,0)"><path fill="rgb(255,255,255)" fill-opacity="1" d=" M33.58000183105469,0 C33.58000183105469,0 4.300000190734863,0 4.300000190734863,0 C1.9299999475479126,0 0,1.9299999475479126 0,4.300000190734863 C0,6.670000076293945 1.9299999475479126,8.600000381469727 4.300000190734863,8.600000381469727 C4.300000190734863,8.600000381469727 33.58000183105469,8.600000381469727 33.58000183105469,8.600000381469727 C35.959999084472656,8.600000381469727 37.88999938964844,6.670000076293945 37.88999938964844,4.300000190734863 C37.88999938964844,1.9299999475479126 35.959999084472656,0 33.58000183105469,0"></path></g></g><g transform="matrix(1,0,0,1,1890.06005859375,595.3200073242188)" opacity="1" style="display: block;"><g opacity="1" transform="matrix(2,0,0,2,0,0)"><path fill="rgb(255,255,255)" fill-opacity="1" d=" M37.27000045776367,0 C37.27000045776367,0 4.300000190734863,0 4.300000190734863,0 C1.9299999475479126,0 0,1.9299999475479126 0,4.300000190734863 C0,6.670000076293945 1.9299999475479126,8.600000381469727 4.300000190734863,8.600000381469727 C4.300000190734863,8.600000381469727 37.27000045776367,8.600000381469727 37.27000045776367,8.600000381469727 C39.650001525878906,8.600000381469727 41.56999969482422,6.670000076293945 41.56999969482422,4.300000190734863 C41.56999969482422,1.9299999475479126 39.650001525878906,0 37.27000045776367,0"></path></g></g><g transform="matrix(1,0,0,1,1798.080078125,913.4200439453125)" opacity="1" style="display: block;"><g opacity="1" transform="matrix(2,0,0,2,0,0)"><path fill="rgb(255,255,255)" fill-opacity="1" d=" M39.88999938964844,0 C39.88999938964844,0 4.300000190734863,0 4.300000190734863,0 C1.9299999475479126,0 0,1.9299999475479126 0,4.300000190734863 C0,6.670000076293945 1.9299999475479126,8.600000381469727 4.300000190734863,8.600000381469727 C4.300000190734863,8.600000381469727 39.88999938964844,8.600000381469727 39.88999938964844,8.600000381469727 C42.27000045776367,8.600000381469727 44.20000076293945,6.670000076293945 44.20000076293945,4.300000190734863 C44.20000076293945,1.9299999475479126 42.27000045776367,0 39.88999938964844,0"></path></g></g><g transform="matrix(1,0,0,1,1746.919921875,950.7000122070312)" opacity="1" style="display: block;"><g opacity="1" transform="matrix(2,0,0,2,0,0)"><path fill="rgb(255,255,255)" fill-opacity="1" d=" M65.47000122070312,0 C65.47000122070312,0 4.300000190734863,0 4.300000190734863,0 C1.9299999475479126,0 0,1.9299999475479126 0,4.300000190734863 C0,6.670000076293945 1.9299999475479126,8.600000381469727 4.300000190734863,8.600000381469727 C4.300000190734863,8.600000381469727 65.47000122070312,8.600000381469727 65.47000122070312,8.600000381469727 C67.83999633789062,8.600000381469727 69.7699966430664,6.670000076293945 69.7699966430664,4.300000190734863 C69.7699966430664,1.9299999475479126 67.83999633789062,0 65.47000122070312,0"></path></g></g><g transform="matrix(1,0,0,1,1746.9200439453125,988.8400268554688)" opacity="1" style="display: block;"><g opacity="1" transform="matrix(2,0,0,2,0,0)"><path fill="rgb(255,255,255)" fill-opacity="1" d=" M37.27000045776367,0 C37.27000045776367,0 4.300000190734863,0 4.300000190734863,0 C1.9299999475479126,0 0,1.9299999475479126 0,4.300000190734863 C0,6.670000076293945 1.9299999475479126,8.600000381469727 4.300000190734863,8.600000381469727 C4.300000190734863,8.600000381469727 37.27000045776367,8.600000381469727 37.27000045776367,8.600000381469727 C39.650001525878906,8.600000381469727 41.56999969482422,6.670000076293945 41.56999969482422,4.300000190734863 C41.56999969482422,1.9299999475479126 39.650001525878906,0 37.27000045776367,0"></path></g></g><g transform="matrix(1,0,0,1,1890.06005859375,631.7200317382812)" opacity="1" style="display: block;"><g opacity="1" transform="matrix(2,0,0,2,0,0)"><path fill="rgb(255,255,255)" fill-opacity="1" d=" M37.27000045776367,0 C37.27000045776367,0 4.300000190734863,0 4.300000190734863,0 C1.9299999475479126,0 0,1.9299999475479126 0,4.300000190734863 C0,6.670000076293945 1.9299999475479126,8.600000381469727 4.300000190734863,8.600000381469727 C4.300000190734863,8.600000381469727 37.27000045776367,8.600000381469727 37.27000045776367,8.600000381469727 C39.650001525878906,8.600000381469727 41.56999969482422,6.670000076293945 41.56999969482422,4.300000190734863 C41.56999969482422,1.9299999475479126 39.650001525878906,0 37.27000045776367,0"></path></g></g><g transform="matrix(1,0,0,1,1606.3800048828125,519.0400390625)" opacity="1" style="display: block;"><g opacity="1" transform="matrix(2,0,0,2,0,0)"><path fill="rgb(255,255,255)" fill-opacity="1" d=" M65.47000122070312,0 C65.47000122070312,0 4.300000190734863,0 4.300000190734863,0 C1.9299999475479126,0 0,1.9299999475479126 0,4.300000190734863 C0,6.670000076293945 1.9299999475479126,8.600000381469727 4.300000190734863,8.600000381469727 C4.300000190734863,8.600000381469727 65.47000122070312,8.600000381469727 65.47000122070312,8.600000381469727 C67.83999633789062,8.600000381469727 69.7699966430664,6.670000076293945 69.7699966430664,4.300000190734863 C69.7699966430664,1.9299999475479126 67.83999633789062,0 65.47000122070312,0"></path></g></g><g transform="matrix(1,0,0,1,1606.3800048828125,554.5800170898438)" opacity="1" style="display: block;"><g opacity="1" transform="matrix(2,0,0,2,0,0)"><path fill="rgb(255,255,255)" fill-opacity="1" d=" M65.47000122070312,0 C65.47000122070312,0 4.300000190734863,0 4.300000190734863,0 C1.9299999475479126,0 0,1.9299999475479126 0,4.300000190734863 C0,6.670000076293945 1.9299999475479126,8.600000381469727 4.300000190734863,8.600000381469727 C4.300000190734863,8.600000381469727 65.47000122070312,8.600000381469727 65.47000122070312,8.600000381469727 C67.83999633789062,8.600000381469727 69.7699966430664,6.670000076293945 69.7699966430664,4.300000190734863 C69.7699966430664,1.9299999475479126 67.83999633789062,0 65.47000122070312,0"></path></g></g><g transform="matrix(1,0,0,1,1666.8199462890625,787.7400512695312)" opacity="1" style="display: block;"><g opacity="1" transform="matrix(2,0,0,2,0,0)"><path fill="rgb(255,255,255)" fill-opacity="1" d=" M35.25,0 C35.25,0 4.300000190734863,0 4.300000190734863,0 C1.9299999475479126,0 0,1.9299999475479126 0,4.300000190734863 C0,6.670000076293945 1.9299999475479126,8.600000381469727 4.300000190734863,8.600000381469727 C4.300000190734863,8.600000381469727 35.25,8.600000381469727 35.25,8.600000381469727 C37.630001068115234,8.600000381469727 39.560001373291016,6.670000076293945 39.560001373291016,4.300000190734863 C39.560001373291016,1.9299999475479126 37.630001068115234,0 35.25,0"></path></g></g><g transform="matrix(1,0,0,1,1603.7799072265625,787.7400512695312)" opacity="1" style="display: block;"><g opacity="1" transform="matrix(2,0,0,2,0,0)"><path fill="rgb(255,255,255)" fill-opacity="1" d=" M4.300000190734863,8.600000381469727 C4.300000190734863,8.600000381469727 17.600000381469727,8.600000381469727 17.600000381469727,8.600000381469727 C19.979999542236328,8.600000381469727 21.90999984741211,6.670000076293945 21.90999984741211,4.300000190734863 C21.90999984741211,1.9299999475479126 19.979999542236328,0 17.600000381469727,0 C17.600000381469727,0 4.300000190734863,0 4.300000190734863,0 C1.9299999475479126,0 0,1.9299999475479126 0,4.300000190734863 C0,6.670000076293945 1.9299999475479126,8.600000381469727 4.300000190734863,8.600000381469727"></path></g></g><g transform="matrix(1,0,0,1,1603.780029296875,826.7400512695312)" opacity="1" style="display: block;"><g opacity="1" transform="matrix(2,0,0,2,0,0)"><path fill="rgb(255,255,255)" fill-opacity="1" d=" M65.47000122070312,0 C65.47000122070312,0 4.300000190734863,0 4.300000190734863,0 C1.9299999475479126,0 0,1.9299999475479126 0,4.300000190734863 C0,6.670000076293945 1.9299999475479126,8.600000381469727 4.300000190734863,8.600000381469727 C4.300000190734863,8.600000381469727 65.47000122070312,8.600000381469727 65.47000122070312,8.600000381469727 C67.83999633789062,8.600000381469727 69.7699966430664,6.670000076293945 69.7699966430664,4.300000190734863 C69.7699966430664,1.9299999475479126 67.83999633789062,0 65.47000122070312,0"></path></g></g><g transform="matrix(1,0,0,1,1662.780029296875,590.1199951171875)" opacity="1" style="display: block;"><g opacity="1" transform="matrix(2,0,0,2,0,0)"><path fill="rgb(255,255,255)" fill-opacity="1" d=" M37.27000045776367,0 C37.27000045776367,0 4.300000190734863,0 4.300000190734863,0 C1.9299999475479126,0 0,1.9299999475479126 0,4.300000190734863 C0,6.670000076293945 1.9299999475479126,8.600000381469727 4.300000190734863,8.600000381469727 C4.300000190734863,8.600000381469727 37.27000045776367,8.600000381469727 37.27000045776367,8.600000381469727 C39.650001525878906,8.600000381469727 41.56999969482422,6.670000076293945 41.56999969482422,4.300000190734863 C41.56999969482422,1.9299999475479126 39.650001525878906,0 37.27000045776367,0"></path></g></g><g transform="matrix(1,0,0,1,1889.3399658203125,765.2999877929688)" opacity="1" style="display: block;"><g opacity="1" transform="matrix(2,0,0,2,0,0)"><path fill="rgb(255,255,255)" fill-opacity="1" d=" M4.980000019073486,9.84000015258789 C7.699999809265137,9.8100004196167 9.880000114440918,7.579999923706055 9.850000381469727,4.860000133514404 C9.819999694824219,2.1500000953674316 7.590000152587891,-0.029999999329447746 4.869999885559082,0 C2.1500000953674316,0.029999999329447746 -0.029999999329447746,2.259999990463257 0,4.980000019073486 C0.029999999329447746,7.699999809265137 2.259999990463257,9.869999885559082 4.980000019073486,9.84000015258789"></path></g></g><g transform="matrix(1,0,0,1,1769.6800537109375,732.8399658203125)" opacity="1" style="display: block;"><g opacity="1" transform="matrix(2,0,0,2,0,0)"><path fill="rgb(255,255,255)" fill-opacity="1" d=" M4.869999885559082,0 C2.1500000953674316,0.029999999329447746 -0.029999999329447746,2.259999990463257 0,4.980000019073486 C0.029999999329447746,7.699999809265137 2.259999990463257,9.869999885559082 4.980000019073486,9.84000015258789 C7.699999809265137,9.8100004196167 9.880000114440918,7.579999923706055 9.850000381469727,4.860000133514404 C9.819999694824219,2.1500000953674316 7.590000152587891,-0.029999999329447746 4.869999885559082,0"></path></g></g><g transform="matrix(1,0,0,1,1610.47998046875,666.0999755859375)" opacity="1" style="display: block;"><g opacity="1" transform="matrix(2,0,0,2,0,0)"><path fill="rgb(255,255,255)" fill-opacity="1" d=" M4.980000019073486,9.84000015258789 C7.699999809265137,9.8100004196167 9.880000114440918,7.579999923706055 9.850000381469727,4.860000133514404 C9.819999694824219,2.1500000953674316 7.590000152587891,-0.029999999329447746 4.869999885559082,0 C2.1500000953674316,0.029999999329447746 -0.029999999329447746,2.259999990463257 0,4.980000019073486 C0.029999999329447746,7.699999809265137 2.259999990463257,9.869999885559082 4.980000019073486,9.84000015258789"></path></g></g><g transform="matrix(1,0,0,1,1647.3599853515625,666.0999755859375)" opacity="1" style="display: block;"><g opacity="1" transform="matrix(2,0,0,2,0,0)"><path fill="rgb(255,255,255)" fill-opacity="1" d=" M9.850000381469727,4.860000133514404 C9.819999694824219,2.1500000953674316 7.590000152587891,-0.029999999329447746 4.869999885559082,0 C2.1500000953674316,0.029999999329447746 -0.029999999329447746,2.259999990463257 0,4.980000019073486 C0.029999999329447746,7.699999809265137 2.259999990463257,9.880000114440918 4.980000019073486,9.84000015258789 C7.699999809265137,9.8100004196167 9.880000114440918,7.579999923706055 9.850000381469727,4.860000133514404"></path></g></g><g transform="matrix(1,0,0,1,2187.3798828125,593.2999877929688)" opacity="1" style="display: block;"><g opacity="1" transform="matrix(2,0,0,2,0,0)"><path fill="rgb(255,255,255)" fill-opacity="1" d=" M4.869999885559082,0 C2.1500000953674316,0.029999999329447746 -0.029999999329447746,2.259999990463257 0,4.980000019073486 C0.029999999329447746,7.699999809265137 2.259999990463257,9.880000114440918 4.980000019073486,9.84000015258789 C7.699999809265137,9.8100004196167 9.880000114440918,7.579999923706055 9.850000381469727,4.860000133514404 C9.819999694824219,2.1500000953674316 7.590000152587891,-0.029999999329447746 4.869999885559082,0"></path></g></g><g transform="matrix(1,0,0,1,2224.260009765625,593.2999877929688)" opacity="1" style="display: block;"><g opacity="1" transform="matrix(2,0,0,2,0,0)"><path fill="rgb(255,255,255)" fill-opacity="1" d=" M4.869999885559082,0 C2.1500000953674316,0.029999999329447746 -0.029999999329447746,2.259999990463257 0,4.980000019073486 C0.029999999329447746,7.699999809265137 2.259999990463257,9.880000114440918 4.980000019073486,9.84000015258789 C7.699999809265137,9.8100004196167 9.880000114440918,7.579999923706055 9.850000381469727,4.860000133514404 C9.819999694824219,2.1500000953674316 7.590000152587891,-0.029999999329447746 4.869999885559082,0"></path></g></g><g transform="matrix(1,0,0,1,1610.47998046875,632.6199951171875)" opacity="1" style="display: block;"><g opacity="1" transform="matrix(2,0,0,2,0,0)"><path fill="rgb(255,255,255)" fill-opacity="1" d=" M4.980000019073486,9.84000015258789 C7.699999809265137,9.8100004196167 9.880000114440918,7.579999923706055 9.850000381469727,4.860000133514404 C9.819999694824219,2.1500000953674316 7.590000152587891,-0.029999999329447746 4.869999885559082,0 C2.1500000953674316,0.029999999329447746 -0.029999999329447746,2.259999990463257 0,4.980000019073486 C0.029999999329447746,7.699999809265137 2.259999990463257,9.880000114440918 4.980000019073486,9.84000015258789"></path></g></g><g transform="matrix(1,0,0,1,1845.1400146484375,632.6199951171875)" opacity="1" style="display: block;"><g opacity="1" transform="matrix(2,0,0,2,0,0)"><path fill="rgb(255,255,255)" fill-opacity="1" d=" M4.869999885559082,0 C2.1500000953674316,0.029999999329447746 -0.029999999329447746,2.259999990463257 0,4.980000019073486 C0.029999999329447746,7.699999809265137 2.259999990463257,9.880000114440918 4.980000019073486,9.84000015258789 C7.699999809265137,9.8100004196167 9.880000114440918,7.579999923706055 9.850000381469727,4.860000133514404 C9.819999694824219,2.1500000953674316 7.590000152587891,-0.029999999329447746 4.869999885559082,0"></path></g></g><g transform="matrix(1,0,0,1,1859.9000244140625,987.5999755859375)" opacity="1" style="display: block;"><g opacity="1" transform="matrix(2,0,0,2,0,0)"><path fill="rgb(255,255,255)" fill-opacity="1" d=" M4.869999885559082,0 C2.1500000953674316,0.029999999329447746 -0.029999999329447746,2.259999990463257 0,4.980000019073486 C0.029999999329447746,7.699999809265137 2.259999990463257,9.880000114440918 4.980000019073486,9.84000015258789 C7.699999809265137,9.8100004196167 9.880000114440918,7.579999923706055 9.850000381469727,4.860000133514404 C9.819999694824219,2.1500000953674316 7.590000152587891,-0.029999999329447746 4.869999885559082,0"></path></g></g><g transform="matrix(1,0,0,1,1845.1400146484375,595.8999633789062)" opacity="1" style="display: block;"><g opacity="1" transform="matrix(2,0,0,2,0,0)"><path fill="rgb(255,255,255)" fill-opacity="1" d=" M4.869999885559082,0 C2.1500000953674316,0.029999999329447746 -0.029999999329447746,2.259999990463257 0,4.980000019073486 C0.029999999329447746,7.699999809265137 2.259999990463257,9.880000114440918 4.980000019073486,9.84000015258789 C7.699999809265137,9.8100004196167 9.880000114440918,7.579999923706055 9.850000381469727,4.860000133514404 C9.819999694824219,2.1500000953674316 7.590000152587891,-0.029999999329447746 4.869999885559082,0"></path></g></g><g transform="matrix(1,0,0,1,1845.1400146484375,559.199951171875)" opacity="1" style="display: block;"><g opacity="1" transform="matrix(2,0,0,2,0,0)"><path fill="rgb(255,255,255)" fill-opacity="1" d=" M0,4.980000019073486 C0.029999999329447746,7.699999809265137 2.259999990463257,9.869999885559082 4.980000019073486,9.84000015258789 C7.699999809265137,9.8100004196167 9.880000114440918,7.579999923706055 9.850000381469727,4.860000133514404 C9.819999694824219,2.1500000953674316 7.590000152587891,-0.029999999329447746 4.869999885559082,0 C2.1500000953674316,0.029999999329447746 -0.029999999329447746,2.259999990463257 0,4.980000019073486"></path></g></g><g transform="matrix(1,0,0,1,2053.239990234375,559.199951171875)" opacity="1" style="display: block;"><g opacity="1" transform="matrix(2,0,0,2,0,0)"><path fill="rgb(255,255,255)" fill-opacity="1" d=" M9.850000381469727,4.860000133514404 C9.819999694824219,2.1500000953674316 7.590000152587891,-0.029999999329447746 4.869999885559082,0 C2.1500000953674316,0.029999999329447746 -0.029999999329447746,2.259999990463257 0,4.980000019073486 C0.029999999329447746,7.699999809265137 2.259999990463257,9.880000114440918 4.980000019073486,9.84000015258789 C7.699999809265137,9.8100004196167 9.880000114440918,7.579999923706055 9.850000381469727,4.860000133514404"></path></g></g><g transform="matrix(1,0,0,1,1929.739990234375,477.0400085449219)" opacity="1" style="display: block;"><g opacity="1" transform="matrix(2,0,0,2,0,0)"><path fill="rgb(255,255,255)" fill-opacity="1" d=" M4.980000019073486,9.84000015258789 C7.699999809265137,9.8100004196167 9.880000114440918,7.579999923706055 9.850000381469727,4.860000133514404 C9.819999694824219,2.1500000953674316 7.590000152587891,-0.029999999329447746 4.869999885559082,0 C2.1500000953674316,0.029999999329447746 -0.029999999329447746,2.259999990463257 0,4.980000019073486 C0.029999999329447746,7.699999809265137 2.259999990463257,9.880000114440918 4.980000019073486,9.84000015258789"></path></g></g><g transform="matrix(1,0,0,1,1929.739990234375,440.32000732421875)" opacity="1" style="display: block;"><g opacity="1" transform="matrix(2,0,0,2,0,0)"><path fill="rgb(255,255,255)" fill-opacity="1" d=" M4.980000019073486,9.84000015258789 C7.699999809265137,9.8100004196167 9.880000114440918,7.579999923706055 9.850000381469727,4.860000133514404 C9.819999694824219,2.1500000953674316 7.590000152587891,-0.029999999329447746 4.869999885559082,0 C2.1500000953674316,0.029999999329447746 -0.029999999329447746,2.259999990463257 0,4.980000019073486 C0.029999999329447746,7.699999809265137 2.259999990463257,9.880000114440918 4.980000019073486,9.84000015258789"></path></g></g><g transform="matrix(1,0,0,1,1979.4200439453125,666.4000244140625)" opacity="1" style="display: block;"><g opacity="1" transform="matrix(2,0,0,2,0,0)"><path fill="rgb(255,255,255)" fill-opacity="1" d=" M17.75,35.470001220703125 C27.540000915527344,35.470001220703125 35.5,27.510000228881836 35.5,17.729999542236328 C35.5,7.960000038146973 27.540000915527344,0 17.75,0 C7.960000038146973,0 0,7.960000038146973 0,17.729999542236328 C0,27.510000228881836 7.960000038146973,35.470001220703125 17.75,35.470001220703125 M17.75,8.6 C22.8,8.6 26.9,12.7 26.9,17.74 C26.9,22.77 22.8,26.87 17.75,26.87 C12.71,26.87 8.61,22.77 8.61,17.74 C8.61,12.7 12.71,8.6 17.75,8.6"></path><g opacity="1" transform="matrix(1,0,0,1,0,0)"></g><g opacity="1" transform="matrix(1,0,0,1,8.609999656677246,8.600000381469727)"></g></g></g><g transform="matrix(1,0,0,1,1761.3800048828125,416)" opacity="1" style="display: block;"><g opacity="1" transform="matrix(2,0,0,2,0,0)"><path fill="rgb(255,255,255)" fill-opacity="1" d=" M17.75,35.470001220703125 C27.540000915527344,35.470001220703125 35.5,27.510000228881836 35.5,17.729999542236328 C35.5,7.960000038146973 27.540000915527344,0 17.75,0 C7.960000038146973,0 0,7.960000038146973 0,17.729999542236328 C0,27.510000228881836 7.960000038146973,35.470001220703125 17.75,35.470001220703125 M17.75,8.6 C22.8,8.6 26.9,12.7 26.9,17.74 C26.9,22.77 22.8,26.87 17.75,26.87 C12.71,26.87 8.61,22.77 8.61,17.74 C8.61,12.7 12.71,8.6 17.75,8.6"></path><g opacity="1" transform="matrix(1,0,0,1,0,0)"></g><g opacity="1" transform="matrix(1,0,0,1,8.609999656677246,8.600000381469727)"></g></g></g><g transform="matrix(1,0,0,1,1768.739990234375,598.43994140625)" opacity="1" style="display: block;"><g opacity="1" transform="matrix(2,0,0,2,0,0)"><path fill="rgb(255,255,255)" fill-opacity="1" d=" M22.049999237060547,31.170000076293945 C22.049999237060547,28.790000915527344 20.1299991607666,26.8700008392334 17.75,26.8700008392334 C12.710000038146973,26.8700008392334 8.609999656677246,22.770000457763672 8.609999656677246,17.729999542236328 C8.609999656677246,12.699999809265137 12.710000038146973,8.600000381469727 17.75,8.600000381469727 C20.1299991607666,8.600000381469727 22.049999237060547,6.670000076293945 22.049999237060547,4.300000190734863 C22.049999237060547,1.9299999475479126 20.1299991607666,0 17.75,0 C7.960000038146973,0 0,7.960000038146973 0,17.729999542236328 C0,27.510000228881836 7.960000038146973,35.470001220703125 17.75,35.470001220703125 C20.1299991607666,35.470001220703125 22.049999237060547,33.540000915527344 22.049999237060547,31.170000076293945"></path></g></g><g transform="matrix(1,0,0,1,1643.8199462890625,700.280029296875)" opacity="1" style="display: block;"><g opacity="1" transform="matrix(2,0,0,2,0,0)"><path fill="rgb(255,255,255)" fill-opacity="1" d=" M17.75,35.470001220703125 C20.1299991607666,35.470001220703125 22.049999237060547,33.540000915527344 22.049999237060547,31.170000076293945 C22.049999237060547,28.790000915527344 20.1299991607666,26.8700008392334 17.75,26.8700008392334 C12.710000038146973,26.8700008392334 8.609999656677246,22.770000457763672 8.609999656677246,17.729999542236328 C8.609999656677246,12.699999809265137 12.710000038146973,8.600000381469727 17.75,8.600000381469727 C20.1299991607666,8.600000381469727 22.049999237060547,6.670000076293945 22.049999237060547,4.300000190734863 C22.049999237060547,1.9299999475479126 20.1299991607666,0 17.75,0 C7.960000038146973,0 0,7.960000038146973 0,17.729999542236328 C0,27.510000228881836 7.960000038146973,35.470001220703125 17.75,35.470001220703125"></path></g></g><g transform="matrix(1,0,0,1,1890.06005859375,799.8799438476562)" opacity="1" style="display: block;"><g opacity="1" transform="matrix(2,0,0,2,0,0)"><path fill="rgb(255,255,255)" fill-opacity="1" d=" M31.200000762939453,0 C28.81999969482422,0 26.889999389648438,1.9299999475479126 26.889999389648438,4.300000190734863 C26.889999389648438,9.34000015258789 22.790000915527344,13.430000305175781 17.75,13.430000305175781 C12.710000038146973,13.430000305175781 8.609999656677246,9.34000015258789 8.609999656677246,4.300000190734863 C8.609999656677246,1.9299999475479126 6.679999828338623,0 4.300000190734863,0 C1.9299999475479126,0 0,1.9299999475479126 0,4.300000190734863 C0,14.079999923706055 7.960000038146973,22.030000686645508 17.75,22.030000686645508 C27.540000915527344,22.030000686645508 35.5,14.079999923706055 35.5,4.300000190734863 C35.5,1.9299999475479126 33.56999969482422,0 31.200000762939453,0"></path></g></g><g transform="matrix(1,0,0,1,2098.280029296875,536.8199462890625)" opacity="1" style="display: block;"><g opacity="1" transform="matrix(2,0,0,2,0,0)"><path fill="rgb(255,255,255)" fill-opacity="1" d=" M31.200000762939453,0 C28.81999969482422,0 26.889999389648438,1.9299999475479126 26.889999389648438,4.300000190734863 C26.889999389648438,9.34000015258789 22.790000915527344,13.430000305175781 17.75,13.430000305175781 C12.710000038146973,13.430000305175781 8.609999656677246,9.34000015258789 8.609999656677246,4.300000190734863 C8.609999656677246,1.9299999475479126 6.679999828338623,0 4.300000190734863,0 C1.9299999475479126,0 0,1.9299999475479126 0,4.300000190734863 C0,14.079999923706055 7.960000038146973,22.030000686645508 17.75,22.030000686645508 C27.540000915527344,22.030000686645508 35.5,14.079999923706055 35.5,4.300000190734863 C35.5,1.9299999475479126 33.56999969482422,0 31.200000762939453,0"></path></g></g><g transform="matrix(1,0,0,1,1771.239990234375,764.8800048828125)" opacity="1" style="display: block;"><g opacity="1" transform="matrix(2,0,0,2,0,0)"><path fill="rgb(255,255,255)" fill-opacity="1" d=" M4.300000190734863,0 C1.9299999475479126,0 0,1.9299999475479126 0,4.300000190734863 C0,4.300000190734863 0,30.469999313354492 0,30.469999313354492 C0,32.84000015258789 1.9299999475479126,34.77000045776367 4.300000190734863,34.77000045776367 C6.679999828338623,34.77000045776367 8.609999656677246,32.84000015258789 8.609999656677246,30.469999313354492 C8.609999656677246,30.469999313354492 8.609999656677246,4.300000190734863 8.609999656677246,4.300000190734863 C8.609999656677246,1.9299999475479126 6.679999828338623,0 4.300000190734863,0"></path></g></g><g transform="matrix(1,0,0,1,1611.719970703125,701.5799560546875)" opacity="1" style="display: block;"><g opacity="1" transform="matrix(2,0,0,2,0,0)"><path fill="rgb(255,255,255)" fill-opacity="1" d=" M4.300000190734863,0 C1.9299999475479126,0 0,1.9299999475479126 0,4.300000190734863 C0,4.300000190734863 0,30.469999313354492 0,30.469999313354492 C0,32.84000015258789 1.9299999475479126,34.77000045776367 4.300000190734863,34.77000045776367 C6.679999828338623,34.77000045776367 8.609999656677246,32.84000015258789 8.609999656677246,30.469999313354492 C8.609999656677246,30.469999313354492 8.609999656677246,4.300000190734863 8.609999656677246,4.300000190734863 C8.609999656677246,1.9299999475479126 6.679999828338623,0 4.300000190734863,0"></path></g></g><g transform="matrix(1,0,0,1,2188.77978515625,513.280029296875)" opacity="1" style="display: block;"><g opacity="1" transform="matrix(2,0,0,2,0,0)"><path fill="rgb(255,255,255)" fill-opacity="1" d=" M4.300000190734863,33.560001373291016 C6.679999828338623,33.560001373291016 8.609999656677246,31.6299991607666 8.609999656677246,29.260000228881836 C8.609999656677246,29.260000228881836 8.609999656677246,4.300000190734863 8.609999656677246,4.300000190734863 C8.609999656677246,1.9299999475479126 6.679999828338623,0 4.300000190734863,0 C1.9299999475479126,0 0,1.9299999475479126 0,4.300000190734863 C0,4.300000190734863 0,29.260000228881836 0,29.260000228881836 C0,31.6299991607666 1.9299999475479126,33.560001373291016 4.300000190734863,33.560001373291016"></path></g></g><g transform="matrix(1,0,0,1,1891.280029296875,440.2200012207031)" opacity="1" style="display: block;"><g opacity="1" transform="matrix(2,0,0,2,0,0)"><path fill="rgb(255,255,255)" fill-opacity="1" d=" M4.300000190734863,28.510000228881836 C6.679999828338623,28.510000228881836 8.609999656677246,26.59000015258789 8.609999656677246,24.209999084472656 C8.609999656677246,24.209999084472656 8.609999656677246,4.300000190734863 8.609999656677246,4.300000190734863 C8.609999656677246,1.9299999475479126 6.679999828338623,0 4.300000190734863,0 C1.9299999475479126,0 0,1.9299999475479126 0,4.300000190734863 C0,4.300000190734863 0,24.209999084472656 0,24.209999084472656 C0,26.59000015258789 1.9299999475479126,28.510000228881836 4.300000190734863,28.510000228881836"></path></g></g><g transform="matrix(1,0,0,1,2011,594.9199829101562)" opacity="1" style="display: block;"><g opacity="1" transform="matrix(2,0,0,2,0,0)"><path fill="rgb(255,255,255)" fill-opacity="1" d=" M4.590000152587891,0 C2.200000047683716,-0.029999999329447746 0.25999999046325684,1.8700000047683716 0.23000000417232513,4.25 C0.23000000417232513,4.25 0,22.649999618530273 0,22.649999618530273 C-0.029999999329447746,25.030000686645508 1.8700000047683716,26.979999542236328 4.25,27.010000228881836 C4.269999980926514,27.010000228881836 4.289999961853027,27.010000228881836 4.300000190734863,27.010000228881836 C6.659999847412109,27.010000228881836 8.579999923706055,25.1200008392334 8.609999656677246,22.760000228881836 C8.609999656677246,22.760000228881836 8.84000015258789,4.349999904632568 8.84000015258789,4.349999904632568 C8.869999885559082,1.9800000190734863 6.960000038146973,0.029999999329447746 4.590000152587891,0"></path></g></g><g transform="matrix(1,0,0,1,2224.33984375,513.280029296875)" opacity="1" style="display: block;"><g opacity="1" transform="matrix(2,0,0,2,0,0)"><path fill="rgb(255,255,255)" fill-opacity="1" d=" M4.300000190734863,33.560001373291016 C6.679999828338623,33.560001373291016 8.609999656677246,31.6299991607666 8.609999656677246,29.260000228881836 C8.609999656677246,29.260000228881836 8.609999656677246,4.300000190734863 8.609999656677246,4.300000190734863 C8.609999656677246,1.9299999475479126 6.679999828338623,0 4.300000190734863,0 C1.9299999475479126,0 0,1.9299999475479126 0,4.300000190734863 C0,4.300000190734863 0,29.260000228881836 0,29.260000228881836 C0,31.6299991607666 1.9299999475479126,33.560001373291016 4.300000190734863,33.560001373291016"></path></g></g><g transform="matrix(1,0,0,1,1808.5400390625,723.97998046875)" opacity="1" style="display: block;"><g opacity="1" transform="matrix(2,0,0,2,0,0)"><path fill="rgb(255,255,255)" fill-opacity="1" d=" M4.300000190734863,55.220001220703125 C6.679999828338623,55.220001220703125 8.609999656677246,53.29999923706055 8.609999656677246,50.91999816894531 C8.609999656677246,50.91999816894531 8.609999656677246,4.300000190734863 8.609999656677246,4.300000190734863 C8.609999656677246,1.9199999570846558 6.679999828338623,0 4.300000190734863,0 C1.9299999475479126,0 0,1.9199999570846558 0,4.300000190734863 C0,4.300000190734863 0,50.91999816894531 0,50.91999816894531 C0,53.29999923706055 1.9299999475479126,55.220001220703125 4.300000190734863,55.220001220703125"></path></g></g><g transform="matrix(1,0,0,1,1845.4200439453125,678.1799926757812)" opacity="1" style="display: block;"><g opacity="1" transform="matrix(2,0,0,2,0,0)"><path fill="rgb(255,255,255)" fill-opacity="1" d=" M4.300000190734863,0 C1.9299999475479126,0 0,1.9299999475479126 0,4.300000190734863 C0,4.300000190734863 0,73.80999755859375 0,73.80999755859375 C0,76.19000244140625 1.9299999475479126,78.11000061035156 4.300000190734863,78.11000061035156 C6.679999828338623,78.11000061035156 8.609999656677246,76.19000244140625 8.609999656677246,73.80999755859375 C8.609999656677246,73.80999755859375 8.609999656677246,4.300000190734863 8.609999656677246,4.300000190734863 C8.609999656677246,1.9299999475479126 6.679999828338623,0 4.300000190734863,0"></path></g></g><g transform="matrix(1,0,0,1,1698.780029296875,631.6000366210938)" opacity="1" style="display: block;"><g opacity="1" transform="matrix(2,0,0,2,0,0)"><path fill="rgb(255,255,255)" fill-opacity="1" d=" M1.2599999904632568,22.290000915527344 C2.0999999046325684,23.1299991607666 3.200000047683716,23.549999237060547 4.300000190734863,23.549999237060547 C5.409999847412109,23.549999237060547 6.510000228881836,23.1299991607666 7.349999904632568,22.290000915527344 C7.349999904632568,22.290000915527344 11.789999961853027,17.860000610351562 11.789999961853027,17.860000610351562 C11.789999961853027,17.860000610351562 16.229999542236328,22.290000915527344 16.229999542236328,22.290000915527344 C17.06999969482422,23.1299991607666 18.170000076293945,23.549999237060547 19.270000457763672,23.549999237060547 C20.3700008392334,23.549999237060547 21.469999313354492,23.1299991607666 22.309999465942383,22.290000915527344 C23.989999771118164,20.610000610351562 23.989999771118164,17.889999389648438 22.309999465942383,16.209999084472656 C22.309999465942383,16.209999084472656 17.8700008392334,11.770000457763672 17.8700008392334,11.770000457763672 C17.8700008392334,11.770000457763672 22.309999465942383,7.340000152587891 22.309999465942383,7.340000152587891 C23.989999771118164,5.659999847412109 23.989999771118164,2.940000057220459 22.309999465942383,1.2599999904632568 C20.6299991607666,-0.41999998688697815 17.90999984741211,-0.41999998688697815 16.229999542236328,1.2599999904632568 C16.229999542236328,1.2599999904632568 11.789999961853027,5.690000057220459 11.789999961853027,5.690000057220459 C11.789999961853027,5.690000057220459 7.349999904632568,1.2599999904632568 7.349999904632568,1.2599999904632568 C5.670000076293945,-0.41999998688697815 2.940000057220459,-0.41999998688697815 1.2599999904632568,1.2599999904632568 C-0.41999998688697815,2.940000057220459 -0.41999998688697815,5.659999847412109 1.2599999904632568,7.340000152587891 C1.2599999904632568,7.340000152587891 5.699999809265137,11.770000457763672 5.699999809265137,11.770000457763672 C5.699999809265137,11.770000457763672 1.2599999904632568,16.209999084472656 1.2599999904632568,16.209999084472656 C-0.41999998688697815,17.889999389648438 -0.41999998688697815,20.610000610351562 1.2599999904632568,22.290000915527344"></path></g></g><g transform="matrix(1,0,0,1,1698.780029296875,700.9400024414062)" opacity="1" style="display: block;"><g opacity="1" transform="matrix(2,0,0,2,0,0)"><path fill="rgb(255,255,255)" fill-opacity="1" d=" M1.2599999904632568,22.290000915527344 C2.0999999046325684,23.1299991607666 3.200000047683716,23.549999237060547 4.300000190734863,23.549999237060547 C5.409999847412109,23.549999237060547 6.510000228881836,23.1299991607666 7.349999904632568,22.290000915527344 C7.349999904632568,22.290000915527344 11.789999961853027,17.860000610351562 11.789999961853027,17.860000610351562 C11.789999961853027,17.860000610351562 16.229999542236328,22.290000915527344 16.229999542236328,22.290000915527344 C17.06999969482422,23.1299991607666 18.170000076293945,23.549999237060547 19.270000457763672,23.549999237060547 C20.3700008392334,23.549999237060547 21.469999313354492,23.1299991607666 22.309999465942383,22.290000915527344 C23.989999771118164,20.610000610351562 23.989999771118164,17.889999389648438 22.309999465942383,16.209999084472656 C22.309999465942383,16.209999084472656 17.8700008392334,11.770000457763672 17.8700008392334,11.770000457763672 C17.8700008392334,11.770000457763672 22.309999465942383,7.340000152587891 22.309999465942383,7.340000152587891 C23.989999771118164,5.659999847412109 23.989999771118164,2.940000057220459 22.309999465942383,1.2599999904632568 C20.6299991607666,-0.41999998688697815 17.90999984741211,-0.41999998688697815 16.229999542236328,1.2599999904632568 C16.229999542236328,1.2599999904632568 11.789999961853027,5.690000057220459 11.789999961853027,5.690000057220459 C11.789999961853027,5.690000057220459 7.349999904632568,1.2599999904632568 7.349999904632568,1.2599999904632568 C5.670000076293945,-0.41999998688697815 2.940000057220459,-0.41999998688697815 1.2599999904632568,1.2599999904632568 C-0.41999998688697815,2.940000057220459 -0.41999998688697815,5.659999847412109 1.2599999904632568,7.340000152587891 C1.2599999904632568,7.340000152587891 5.699999809265137,11.770000457763672 5.699999809265137,11.770000457763672 C5.699999809265137,11.770000457763672 1.2599999904632568,16.209999084472656 1.2599999904632568,16.209999084472656 C-0.41999998688697815,17.889999389648438 -0.41999998688697815,20.610000610351562 1.2599999904632568,22.290000915527344"></path></g></g><g transform="matrix(1,0,0,1,1974.2200927734375,450.02001953125)" opacity="1" style="display: block;"><g opacity="1" transform="matrix(2,0,0,2,0,0)"><path fill="rgb(255,255,255)" fill-opacity="1" d=" M1.2599999904632568,22.290000915527344 C2.0999999046325684,23.1299991607666 3.200000047683716,23.549999237060547 4.300000190734863,23.549999237060547 C5.409999847412109,23.549999237060547 6.510000228881836,23.1299991607666 7.349999904632568,22.290000915527344 C7.349999904632568,22.290000915527344 11.789999961853027,17.860000610351562 11.789999961853027,17.860000610351562 C11.789999961853027,17.860000610351562 16.229999542236328,22.290000915527344 16.229999542236328,22.290000915527344 C17.06999969482422,23.1299991607666 18.170000076293945,23.549999237060547 19.270000457763672,23.549999237060547 C20.3700008392334,23.549999237060547 21.469999313354492,23.1299991607666 22.309999465942383,22.290000915527344 C23.989999771118164,20.610000610351562 23.989999771118164,17.889999389648438 22.309999465942383,16.209999084472656 C22.309999465942383,16.209999084472656 17.8700008392334,11.779999732971191 17.8700008392334,11.779999732971191 C17.8700008392334,11.779999732971191 22.309999465942383,7.340000152587891 22.309999465942383,7.340000152587891 C23.989999771118164,5.659999847412109 23.989999771118164,2.940000057220459 22.309999465942383,1.2599999904632568 C20.6299991607666,-0.41999998688697815 17.90999984741211,-0.41999998688697815 16.229999542236328,1.2599999904632568 C16.229999542236328,1.2599999904632568 11.789999961853027,5.690000057220459 11.789999961853027,5.690000057220459 C11.789999961853027,5.690000057220459 7.349999904632568,1.2599999904632568 7.349999904632568,1.2599999904632568 C5.670000076293945,-0.41999998688697815 2.940000057220459,-0.41999998688697815 1.2599999904632568,1.2599999904632568 C-0.41999998688697815,2.940000057220459 -0.41999998688697815,5.659999847412109 1.2599999904632568,7.340000152587891 C1.2599999904632568,7.340000152587891 5.699999809265137,11.779999732971191 5.699999809265137,11.779999732971191 C5.699999809265137,11.779999732971191 1.2599999904632568,16.209999084472656 1.2599999904632568,16.209999084472656 C-0.41999998688697815,17.889999389648438 -0.41999998688697815,20.610000610351562 1.2599999904632568,22.290000915527344"></path></g></g><g transform="matrix(1,0,0,1,1890.06005859375,671.0400390625)" opacity="1" style="display: block;"><g opacity="1" transform="matrix(2,0,0,2,0,0)"><path fill="rgb(255,255,255)" fill-opacity="1" d=" M1.2599999904632568,22.290000915527344 C2.0999999046325684,23.1299991607666 3.200000047683716,23.549999237060547 4.300000190734863,23.549999237060547 C5.409999847412109,23.549999237060547 6.510000228881836,23.1299991607666 7.349999904632568,22.290000915527344 C7.349999904632568,22.290000915527344 11.789999961853027,17.860000610351562 11.789999961853027,17.860000610351562 C11.789999961853027,17.860000610351562 16.229999542236328,22.290000915527344 16.229999542236328,22.290000915527344 C17.06999969482422,23.1299991607666 18.170000076293945,23.549999237060547 19.270000457763672,23.549999237060547 C20.3700008392334,23.549999237060547 21.469999313354492,23.1299991607666 22.309999465942383,22.290000915527344 C23.989999771118164,20.610000610351562 23.989999771118164,17.889999389648438 22.309999465942383,16.209999084472656 C22.309999465942383,16.209999084472656 17.8700008392334,11.779999732971191 17.8700008392334,11.779999732971191 C17.8700008392334,11.779999732971191 22.309999465942383,7.340000152587891 22.309999465942383,7.340000152587891 C23.989999771118164,5.659999847412109 23.989999771118164,2.940000057220459 22.309999465942383,1.2599999904632568 C20.6299991607666,-0.41999998688697815 17.90999984741211,-0.41999998688697815 16.229999542236328,1.2599999904632568 C16.229999542236328,1.2599999904632568 11.789999961853027,5.690000057220459 11.789999961853027,5.690000057220459 C11.789999961853027,5.690000057220459 7.349999904632568,1.2599999904632568 7.349999904632568,1.2599999904632568 C5.670000076293945,-0.41999998688697815 2.940000057220459,-0.41999998688697815 1.2599999904632568,1.2599999904632568 C-0.41999998688697815,2.940000057220459 -0.41999998688697815,5.659999847412109 1.2599999904632568,7.340000152587891 C1.2599999904632568,7.340000152587891 5.699999809265137,11.779999732971191 5.699999809265137,11.779999732971191 C5.699999809265137,11.779999732971191 1.2599999904632568,16.209999084472656 1.2599999904632568,16.209999084472656 C-0.41999998688697815,17.889999389648438 -0.41999998688697815,20.610000610351562 1.2599999904632568,22.290000915527344"></path></g></g><g transform="matrix(1,0,0,1,1607.820068359375,465.0400085449219)" opacity="1" style="display: block;"><g opacity="1" transform="matrix(2,0,0,2,0,0)"><path fill="rgb(255,255,255)" fill-opacity="1" d=" M4.309999942779541,18.030000686645508 C5.130000114440918,18.030000686645508 5.949999809265137,17.790000915527344 6.679999828338623,17.309999465942383 C6.679999828338623,17.309999465942383 18.190000534057617,9.670000076293945 18.190000534057617,9.670000076293945 C18.190000534057617,9.670000076293945 31.540000915527344,17.440000534057617 31.540000915527344,17.440000534057617 C32.95000076293945,18.270000457763672 34.720001220703125,18.209999084472656 36.08000183105469,17.309999465942383 C36.08000183105469,17.309999465942383 47.90999984741211,9.460000038146973 47.90999984741211,9.460000038146973 C47.90999984741211,9.460000038146973 59.7400016784668,17.309999465942383 59.7400016784668,17.309999465942383 C61.720001220703125,18.6200008392334 64.38999938964844,18.079999923706055 65.70999908447266,16.100000381469727 C67.0199966430664,14.130000114440918 66.4800033569336,11.460000038146973 64.5,10.140000343322754 C64.5,10.140000343322754 50.290000915527344,0.7200000286102295 50.290000915527344,0.7200000286102295 C48.849998474121094,-0.23999999463558197 46.970001220703125,-0.23999999463558197 45.529998779296875,0.7200000286102295 C45.529998779296875,0.7200000286102295 33.54999923706055,8.65999984741211 33.54999923706055,8.65999984741211 C33.54999923706055,8.65999984741211 20.209999084472656,0.8999999761581421 20.209999084472656,0.8999999761581421 C18.790000915527344,0.07000000029802322 17.030000686645508,0.11999999731779099 15.65999984741211,1.0299999713897705 C15.65999984741211,1.0299999713897705 1.9199999570846558,10.140000343322754 1.9199999570846558,10.140000343322754 C-0.05999999865889549,11.460000038146973 -0.6000000238418579,14.130000114440918 0.7200000286102295,16.100000381469727 C1.5499999523162842,17.350000381469727 2.9100000858306885,18.030000686645508 4.309999942779541,18.030000686645508"></path></g></g><g transform="matrix(1,0,0,1,1979.56005859375,796.239990234375)" opacity="1" style="display: block;"><g opacity="1" transform="matrix(2,0,0,2,0,0)"><path fill="rgb(255,255,255)" fill-opacity="1" d=" M64.5,10.140000343322754 C64.5,10.140000343322754 50.290000915527344,0.7200000286102295 50.290000915527344,0.7200000286102295 C48.849998474121094,-0.23999999463558197 46.970001220703125,-0.23999999463558197 45.529998779296875,0.7200000286102295 C45.529998779296875,0.7200000286102295 33.54999923706055,8.65999984741211 33.54999923706055,8.65999984741211 C33.54999923706055,8.65999984741211 20.209999084472656,0.8999999761581421 20.209999084472656,0.8999999761581421 C18.790000915527344,0.07000000029802322 17.030000686645508,0.11999999731779099 15.65999984741211,1.0299999713897705 C15.65999984741211,1.0299999713897705 1.9199999570846558,10.140000343322754 1.9199999570846558,10.140000343322754 C-0.05999999865889549,11.460000038146973 -0.6000000238418579,14.130000114440918 0.7200000286102295,16.100000381469727 C1.5499999523162842,17.350000381469727 2.9100000858306885,18.030000686645508 4.309999942779541,18.030000686645508 C5.130000114440918,18.030000686645508 5.949999809265137,17.790000915527344 6.679999828338623,17.309999465942383 C6.679999828338623,17.309999465942383 18.190000534057617,9.670000076293945 18.190000534057617,9.670000076293945 C18.190000534057617,9.670000076293945 31.540000915527344,17.440000534057617 31.540000915527344,17.440000534057617 C32.95000076293945,18.270000457763672 34.720001220703125,18.209999084472656 36.08000183105469,17.309999465942383 C36.08000183105469,17.309999465942383 47.90999984741211,9.460000038146973 47.90999984741211,9.460000038146973 C47.90999984741211,9.460000038146973 59.7400016784668,17.309999465942383 59.7400016784668,17.309999465942383 C61.720001220703125,18.6200008392334 64.38999938964844,18.079999923706055 65.70999908447266,16.100000381469727 C67.0199966430664,14.130000114440918 66.4800033569336,11.460000038146973 64.5,10.140000343322754"></path></g></g><g transform="matrix(1,0,0,1,1748.780029296875,855.5)" opacity="1" style="display: block;"><g opacity="1" transform="matrix(2,0,0,2,0,0)"><path fill="rgb(255,255,255)" fill-opacity="1" d=" M4.309999942779541,18.030000686645508 C5.130000114440918,18.030000686645508 5.949999809265137,17.790000915527344 6.679999828338623,17.309999465942383 C6.679999828338623,17.309999465942383 18.190000534057617,9.670000076293945 18.190000534057617,9.670000076293945 C18.190000534057617,9.670000076293945 31.540000915527344,17.440000534057617 31.540000915527344,17.440000534057617 C32.95000076293945,18.270000457763672 34.720001220703125,18.209999084472656 36.08000183105469,17.309999465942383 C36.08000183105469,17.309999465942383 47.90999984741211,9.460000038146973 47.90999984741211,9.460000038146973 C47.90999984741211,9.460000038146973 59.7400016784668,17.309999465942383 59.7400016784668,17.309999465942383 C61.720001220703125,18.6200008392334 64.38999938964844,18.079999923706055 65.70999908447266,16.100000381469727 C67.0199966430664,14.130000114440918 66.4800033569336,11.460000038146973 64.5,10.140000343322754 C64.5,10.140000343322754 50.290000915527344,0.7200000286102295 50.290000915527344,0.7200000286102295 C48.849998474121094,-0.23999999463558197 46.970001220703125,-0.23999999463558197 45.529998779296875,0.7200000286102295 C45.529998779296875,0.7200000286102295 33.54999923706055,8.65999984741211 33.54999923706055,8.65999984741211 C33.54999923706055,8.65999984741211 20.209999084472656,0.8999999761581421 20.209999084472656,0.8999999761581421 C18.790000915527344,0.07000000029802322 17.030000686645508,0.11999999731779099 15.65999984741211,1.0299999713897705 C15.65999984741211,1.0299999713897705 1.9199999570846558,10.140000343322754 1.9199999570846558,10.140000343322754 C-0.05999999865889549,11.460000038146973 -0.6000000238418579,14.130000114440918 0.7200000286102295,16.100000381469727 C1.5499999523162842,17.350000381469727 2.9100000858306885,18.030000686645508 4.309999942779541,18.030000686645508"></path></g></g><g transform="matrix(1,0,0,1,1945.300048828125,731.0599975585938)" opacity="1" style="display: block;"><g opacity="1" transform="matrix(2,0,0,2,0,0)"><path fill="rgb(255,255,255)" fill-opacity="1" d=" M4.300000190734863,0 C1.9299999475479126,0 0,1.9299999475479126 0,4.300000190734863 C0,4.300000190734863 0,24.450000762939453 0,24.450000762939453 C0,26.829999923706055 1.9299999475479126,28.75 4.300000190734863,28.75 C6.679999828338623,28.75 8.609999656677246,26.829999923706055 8.609999656677246,24.450000762939453 C8.609999656677246,24.450000762939453 8.609999656677246,4.300000190734863 8.609999656677246,4.300000190734863 C8.609999656677246,1.9299999475479126 6.679999828338623,0 4.300000190734863,0"></path></g></g></g></g></g></g><g clip-path="url(#__lottie_element_998)" transform="matrix(1,0,0,1,0,0)" opacity="1" style="display: block;"><g transform="matrix(1,0,0,1,194,526)" opacity="1" style="display: block;"><g opacity="1" transform="matrix(2,0,0,2,0,0)"><path fill="rgb(242,242,249)" fill-opacity="1" d=" M61.5,6 C95.47000122070312,6 98.47000122070312,4.659999847412109 98.47000122070312,3 C98.47000122070312,1.340000033378601 95.47000122070312,0 61.5,0 C27.530000686645508,0 0,1.340000033378601 0,3 C0,4.659999847412109 27.530000686645508,6 61.5,6z"></path></g></g><g clip-path="url(#__lottie_element_1128)" transform="matrix(1,0,0,1,215,281)" opacity="1" style="display: block;"><g opacity="1" transform="matrix(2,0,0,2,0,0)"><path fill="rgb(130,130,239)" fill-opacity="1" d=" M31.5,-37.5 C31.5,-37.5 31.5,37.5 31.5,37.5 C31.5,40.259498596191406 29.25950050354004,42.5 26.5,42.5 C26.5,42.5 -26.5,42.5 -26.5,42.5 C-29.25950050354004,42.5 -31.5,40.259498596191406 -31.5,37.5 C-31.5,37.5 -31.5,-37.5 -31.5,-37.5 C-31.5,-40.259498596191406 -29.25950050354004,-42.5 -26.5,-42.5 C-26.5,-42.5 26.5,-42.5 26.5,-42.5 C29.25950050354004,-42.5 31.5,-40.259498596191406 31.5,-37.5z"></path></g></g><g transform="matrix(1,0,0,1,207,273)" opacity="1" style="display: block;"><g opacity="1" transform="matrix(2,0,0,2,0,0)"><path fill="rgb(255,255,255)" fill-opacity="1" d=" M31.5,-37.5 C31.5,-37.5 31.5,37.5 31.5,37.5 C31.5,40.259498596191406 29.25950050354004,42.5 26.5,42.5 C26.5,42.5 -26.5,42.5 -26.5,42.5 C-29.25950050354004,42.5 -31.5,40.259498596191406 -31.5,37.5 C-31.5,37.5 -31.5,-37.5 -31.5,-37.5 C-31.5,-40.259498596191406 -29.25950050354004,-42.5 -26.5,-42.5 C-26.5,-42.5 26.5,-42.5 26.5,-42.5 C29.25950050354004,-42.5 31.5,-40.259498596191406 31.5,-37.5z"></path></g></g><g transform="matrix(1,0,0,1,138,317.65997314453125)" opacity="1" style="display: block;"><g opacity="1" transform="matrix(2,0,0,2,0,0)"><path stroke-linecap="round" stroke-linejoin="round" fill-opacity="0" stroke="rgb(59,61,77)" stroke-opacity="1" stroke-width="2" d=" M53.52000045776367,27.170000076293945 C53.52000045776367,27.170000076293945 5,27.170000076293945 5,27.170000076293945 C2.240000009536743,27.170000076293945 0,24.93000030517578 0,22.170000076293945 C0,22.170000076293945 0,0 0,0"></path></g></g><g transform="matrix(1,0,0,1,258.7200012207031,135.47999572753906)" opacity="1" style="display: block;"><g opacity="1" transform="matrix(2,0,0,2,0,0)"><path fill="rgb(255,255,255)" fill-opacity="1" d=" M43.31999969482422,101.76000213623047 C43.31999969482422,101.76000213623047 43.31999969482422,60.58000183105469 43.31999969482422,60.58000183105469 C43.31999969482422,60.58000183105469 39.0099983215332,54.900001525878906 39.0099983215332,54.900001525878906 C39.0099983215332,54.900001525878906 29.139999389648438,64.5999984741211 29.139999389648438,64.5999984741211 C29.139999389648438,64.5999984741211 0,59.22999954223633 0,59.22999954223633 C0,59.22999954223633 1.2200000286102295,52.68000030517578 1.2200000286102295,52.68000030517578 C1.2200000286102295,52.68000030517578 23.979999542236328,54.900001525878906 23.979999542236328,54.900001525878906 C23.979999542236328,54.900001525878906 41.83000183105469,34.189998626708984 41.83000183105469,34.189998626708984 C41.83000183105469,34.189998626708984 53.470001220703125,29.6200008392334 53.470001220703125,29.6200008392334 C53.470001220703125,29.6200008392334 53.470001220703125,24.600000381469727 53.470001220703125,24.600000381469727 C53.470001220703125,24.600000381469727 50.97999954223633,24.600000381469727 50.97999954223633,24.600000381469727 C50.97999954223633,24.600000381469727 48.560001373291016,22.389999389648438 48.560001373291016,22.389999389648438 C48.560001373291016,22.389999389648438 47.939998626708984,18.350000381469727 47.939998626708984,18.350000381469727 C47.939998626708984,18.350000381469727 46.599998474121094,18.350000381469727 46.599998474121094,18.350000381469727 C46.599998474121094,18.350000381469727 47.939998626708984,11.770000457763672 47.939998626708984,11.770000457763672 C47.939998626708984,11.770000457763672 48.560001373291016,3.0199999809265137 48.560001373291016,3.0199999809265137 C48.560001373291016,3.0199999809265137 50.18000030517578,0 50.18000030517578,0 C50.18000030517578,0 71.8499984741211,2.109999895095825 71.8499984741211,2.109999895095825 C71.8499984741211,2.109999895095825 73.48999786376953,94.30999755859375 73.48999786376953,94.30999755859375 C73.48999786376953,94.30999755859375 67.83999633789062,101.76000213623047 67.83999633789062,101.76000213623047 C67.83999633789062,101.76000213623047 43.31999969482422,101.76000213623047 43.31999969482422,101.76000213623047z"></path></g></g><g transform="matrix(1,0,0,1,231.52000427246094,233.67999267578125)" opacity="1" style="display: block;"><g opacity="1" transform="matrix(2,0,0,2,0,0)"><path fill="rgb(165,172,200)" fill-opacity="1" d=" M13,7.329999923706055 C13,7.329999923706055 9.020000457763672,7.329999923706055 9.020000457763672,7.329999923706055 C9.020000457763672,7.329999923706055 2.7100000381469727,7.639999866485596 2.7100000381469727,7.639999866485596 C2.7100000381469727,7.639999866485596 0.6800000071525574,6.090000152587891 0.2199999988079071,4.400000095367432 C-0.3700000047683716,2.2699999809265137 0.6200000047683716,0 0.6200000047683716,0 C0.6200000047683716,0 15.239999771118164,2.930000066757202 15.239999771118164,2.930000066757202 C15.239999771118164,2.930000066757202 13,7.329999923706055 13,7.329999923706055z"></path></g></g><g transform="matrix(1,0,0,1,350.67999267578125,145.8000030517578)" opacity="1" style="display: block;"><g opacity="1" transform="matrix(2,0,0,2,0,0)"><path fill="rgb(165,172,200)" fill-opacity="1" d=" M9.819999694824219,34.529998779296875 C9.819999694824219,34.529998779296875 6.090000152587891,32.529998779296875 6.090000152587891,32.529998779296875 C6.090000152587891,32.529998779296875 4.650000095367432,25.579999923706055 4.650000095367432,25.579999923706055 C4.650000095367432,25.579999923706055 7.239999771118164,24.270000457763672 7.239999771118164,24.270000457763672 C7.239999771118164,24.270000457763672 7.769999980926514,18.84000015258789 7.769999980926514,18.84000015258789 C7.769999980926514,18.84000015258789 3.6500000953674316,18.84000015258789 3.6500000953674316,18.84000015258789 C3.6500000953674316,18.84000015258789 2.2300000190734863,14.829999923706055 2.2300000190734863,14.829999923706055 C2.2300000190734863,14.829999923706055 1.4500000476837158,12.960000038146973 1.4500000476837158,12.960000038146973 C1.4500000476837158,12.960000038146973 0,13.4399995803833 0,13.4399995803833 C0,13.4399995803833 2.2300000190734863,7.170000076293945 2.2300000190734863,7.170000076293945 C2.2300000190734863,7.170000076293945 2.2300000190734863,0 2.2300000190734863,0 C2.2300000190734863,0 4.650000095367432,3.4200000762939453 4.650000095367432,3.4200000762939453 C4.650000095367432,3.4200000762939453 9.819999694824219,5.179999828338623 9.819999694824219,5.179999828338623 C9.819999694824219,5.179999828338623 11.720000267028809,5.730000019073486 11.720000267028809,5.730000019073486 C11.720000267028809,5.730000019073486 12.770000457763672,7.949999809265137 12.770000457763672,7.949999809265137 C12.770000457763672,7.949999809265137 16.239999771118164,8.850000381469727 16.239999771118164,8.850000381469727 C16.239999771118164,8.850000381469727 16.799999237060547,10.40999984741211 16.799999237060547,10.40999984741211 C16.799999237060547,10.40999984741211 15.420000076293945,12.470000267028809 15.420000076293945,12.470000267028809 C15.420000076293945,12.470000267028809 15.420000076293945,14.079999923706055 15.420000076293945,14.079999923706055 C15.420000076293945,14.079999923706055 17.649999618530273,16.290000915527344 17.649999618530273,16.290000915527344 C17.649999618530273,16.290000915527344 19.010000228881836,17.260000228881836 19.010000228881836,17.260000228881836 C19.010000228881836,17.260000228881836 16.799999237060547,21.579999923706055 16.799999237060547,21.579999923706055 C16.799999237060547,21.579999923706055 16.799999237060547,25.579999923706055 16.799999237060547,25.579999923706055 C16.799999237060547,25.579999923706055 19.010000228881836,26.399999618530273 19.010000228881836,26.399999618530273 C19.010000228881836,26.399999618530273 17.649999618530273,29.75 17.649999618530273,29.75 C17.649999618530273,29.75 14.529999732971191,33.130001068115234 14.529999732971191,33.130001068115234 C14.529999732971191,33.130001068115234 12.1899995803833,34.529998779296875 12.1899995803833,34.529998779296875 C12.1899995803833,34.529998779296875 9.819999694824219,34.529998779296875 9.819999694824219,34.529998779296875z"></path></g></g><g transform="matrix(1,0,0,1,370.70001220703125,122)" opacity="1" style="display: block;"><g opacity="1" transform="matrix(2,0,0,2,0,0)"><path fill="rgb(242,242,249)" fill-opacity="1" d=" M0.33000001311302185,3.5799999237060547 C-1.9600000381469727,4.989999771118164 8.149999618530273,4.449999809265137 13.569999694824219,17.90999984741211 C18.059999465942383,18.649999618530273 17.110000610351562,13.4399995803833 17.110000610351562,13.4399995803833 C17.110000610351562,13.4399995803833 20.139999389648438,21.68000030517578 25.15999984741211,24.68000030517578 C30.18000030517578,27.68000030517578 39.09000015258789,32.91999816894531 41.779998779296875,36.54999923706055 C44.459999084472656,40.189998626708984 44.2400016784668,46.720001220703125 40.29999923706055,48.709999084472656 C36.36000061035156,50.70000076293945 45.65999984741211,47.13999938964844 45.65999984741211,47.13999938964844 C45.65999984741211,47.13999938964844 49.65999984741211,41.349998474121094 49.65999984741211,41.349998474121094 C49.65999984741211,41.349998474121094 50.34000015258789,34.790000915527344 50.34000015258789,34.790000915527344 C50.34000015258789,34.790000915527344 47.47999954223633,29.469999313354492 47.47999954223633,29.469999313354492 C47.47999954223633,29.469999313354492 42.68000030517578,25.719999313354492 42.68000030517578,25.719999313354492 C42.68000030517578,25.719999313354492 36.72999954223633,20.979999542236328 36.72999954223633,20.979999542236328 C36.72999954223633,20.979999542236328 32.43000030517578,14.470000267028809 32.43000030517578,14.470000267028809 C32.43000030517578,14.470000267028809 30.559999465942383,6.869999885559082 30.559999465942383,6.869999885559082 C30.559999465942383,6.869999885559082 28.049999237060547,2.0399999618530273 28.049999237060547,2.0399999618530273 C28.049999237060547,2.0399999618530273 24.25,0 24.25,0 C24.25,0 19.8799991607666,0 19.8799991607666,0 C19.8799991607666,0 17.110000610351562,1.6100000143051147 17.110000610351562,1.6100000143051147 C17.110000610351562,1.6100000143051147 15.479999542236328,3.5799999237060547 15.479999542236328,3.5799999237060547 C15.479999542236328,3.5799999237060547 13.010000228881836,2.5299999713897705 13.010000228881836,2.5299999713897705 C13.010000228881836,2.5299999713897705 11.760000228881836,4.449999809265137 11.760000228881836,4.449999809265137 C11.760000228881836,4.449999809265137 7.860000133514404,3.5799999237060547 7.860000133514404,3.5799999237060547 C7.860000133514404,3.5799999237060547 1.649999976158142,3.0299999713897705 1.649999976158142,3.0299999713897705 C1.649999976158142,3.0299999713897705 2.630000114440918,2.180000066757202 0.33000001311302185,3.5799999237060547z"></path></g></g><g transform="matrix(1,0,0,1,378.2799987792969,514.280029296875)" opacity="1" style="display: block;"><g opacity="1" transform="matrix(2,0,0,2,0,0)"><path fill="rgb(165,172,200)" fill-opacity="1" d=" M0,2.700000047683716 C0,2.700000047683716 2,3.809999942779541 2,3.809999942779541 C2,3.809999942779541 4.519999980926514,3.6700000762939453 5.730000019073486,2.700000047683716 C6.789999961853027,1.850000023841858 6.519999980926514,0.18000000715255737 6.519999980926514,0.18000000715255737 C6.519999980926514,0.18000000715255737 1.2300000190734863,0 1.2300000190734863,0 C1.2300000190734863,0 0,2.700000047683716 0,2.700000047683716z"></path></g></g><g transform="matrix(1,0,0,1,338.3399963378906,242.83999633789062)" opacity="1" style="display: block;"><g opacity="1" transform="matrix(2,0,0,2,0,0)"><path fill="rgb(242,242,249)" fill-opacity="1" d=" M0.2199999988079071,1.590000033378601 C1.2400000095367432,4.340000152587891 2.7799999713897705,7.539999961853027 7.880000114440918,6.690000057220459 C12.979999542236328,5.840000152587891 9.8100004196167,0.5 5.789999961853027,0.5 C1.7699999809265137,0.5 -0.7900000214576721,-1.159999966621399 0.2199999988079071,1.590000033378601z"></path></g></g><g transform="matrix(1,0,0,1,425.96002197265625,343.55999755859375)" opacity="1" style="display: block;"><g opacity="1" transform="matrix(2,0,0,2,0,0)"><path fill="rgb(165,172,200)" fill-opacity="1" d=" M0,1.559999942779541 C0,1.559999942779541 0.5299999713897705,9.289999961853027 0.5299999713897705,9.289999961853027 C0.5299999713897705,9.289999961853027 4.159999847412109,11.34000015258789 5.079999923706055,9.579999923706055 C5.989999771118164,7.829999923706055 5.079999923706055,4.829999923706055 5.079999923706055,4.829999923706055 C5.079999923706055,4.829999923706055 2.440000057220459,0 2.440000057220459,0 C2.440000057220459,0 0,1.559999942779541 0,1.559999942779541z"></path></g></g><g transform="matrix(1,0,0,1,386,254.00001525878906)" opacity="1" style="display: block;"><g opacity="1" transform="matrix(2,0,0,2,0,0)"><path fill="rgb(242,242,249)" fill-opacity="1" d=" M8.119999885559082,0 C8.119999885559082,0 1.899999976158142,7.679999828338623 1.899999976158142,7.679999828338623 C1.899999976158142,7.679999828338623 -0.10000000149011612,10.880000114440918 1.899999976158142,20.969999313354492 C3.9100000858306885,31.059999465942383 3.809999942779541,39.400001525878906 1.899999976158142,50.31999969482422 C0,61.25 0,129.47999572753906 0,129.47999572753906 C0,129.47999572753906 2.950000047683716,129.47999572753906 2.950000047683716,129.47999572753906 C2.950000047683716,129.47999572753906 6.510000228881836,67.9000015258789 6.510000228881836,67.9000015258789 C6.510000228881836,67.9000015258789 8.119999885559082,48.209999084472656 8.119999885559082,48.209999084472656 C8.119999885559082,48.209999084472656 9.789999961853027,37.970001220703125 9.789999961853027,37.970001220703125 C9.789999961853027,37.970001220703125 8.119999885559082,24.360000610351562 8.119999885559082,24.360000610351562 C8.119999885559082,24.360000610351562 6.510000228881836,12.100000381469727 6.510000228881836,12.100000381469727 C6.510000228881836,12.100000381469727 8.119999885559082,0 8.119999885559082,0z"></path></g></g><g transform="matrix(1,0,0,1,395.55999755859375,202.95999145507812)" opacity="1" style="display: block;"><g opacity="1" transform="matrix(2,0,0,2,0,0)"><path fill="rgb(242,242,249)" fill-opacity="1" d=" M0,0 C0,0 4.150000095367432,4.019999980926514 5.059999942779541,7.21999979019165 C5.980000019073486,10.40999984741211 16.610000610351562,70.23999786376953 16.610000610351562,70.23999786376953 C16.610000610351562,70.23999786376953 18.43000030517578,70.23999786376953 18.43000030517578,70.23999786376953 C18.43000030517578,70.23999786376953 7.809999942779541,2.740000009536743 7.809999942779541,2.740000009536743 C7.809999942779541,2.740000009536743 0,0 0,0z"></path></g></g><g transform="matrix(1,0,0,1,355.760009765625,349.5)" opacity="1" style="display: block;"><g opacity="1" transform="matrix(2,0,0,2,0,0)"><path fill="rgb(242,242,249)" fill-opacity="1" d=" M1,0 C1,0 0,29.549999237060547 0,29.549999237060547 C0,29.549999237060547 5.730000019073486,35.02000045776367 5.730000019073486,35.02000045776367 C5.730000019073486,35.02000045776367 1,0 1,0z"></path></g></g><g transform="matrix(1,0,0,1,258.3999938964844,183.52000427246094)" opacity="1" style="display: block;"><g opacity="1" transform="matrix(2,0,0,2,0,0)"><path stroke-linecap="round" stroke-linejoin="round" fill-opacity="0" stroke="rgb(59,61,77)" stroke-opacity="1" stroke-width="2" d=" M53.709999084472656,0 C53.709999084472656,0 53.709999084472656,5.639999866485596 53.709999084472656,5.639999866485596 C53.709999084472656,5.639999866485596 41.959999084472656,9.880000114440918 41.959999084472656,9.880000114440918 C41.959999084472656,9.880000114440918 24.229999542236328,31.25 24.229999542236328,31.25 C24.229999542236328,31.25 1.309999942779541,27.989999771118164 1.309999942779541,27.989999771118164 C1.309999942779541,27.989999771118164 0,34.72999954223633 0,34.72999954223633 C0,34.72999954223633 29.059999465942383,40.52000045776367 29.059999465942383,40.52000045776367 C29.059999465942383,40.52000045776367 39.220001220703125,30.600000381469727 39.220001220703125,30.600000381469727"></path></g></g><g transform="matrix(1,0,0,1,359.9599914550781,197.39999389648438)" opacity="1" style="display: block;"><g opacity="1" transform="matrix(2,0,0,2,0,0)"><path stroke-linecap="round" stroke-linejoin="round" fill-opacity="0" stroke="rgb(59,61,77)" stroke-opacity="1" stroke-width="2" d=" M0,0 C0,0 0.33000001311302185,8.640000343322754 5.699999809265137,8.640000343322754 C11.069999694824219,8.640000343322754 14.489999771118164,0.46000000834465027 14.489999771118164,0.46000000834465027"></path></g></g><g transform="matrix(1,0,0,1,334.1600036621094,217.77999877929688)" opacity="1" style="display: block;"><g opacity="1" transform="matrix(2,0,0,2,0,0)"><path stroke-linecap="round" stroke-linejoin="round" fill-opacity="0" stroke="rgb(59,61,77)" stroke-opacity="1" stroke-width="2" d=" M7.590000152587891,0 C7.590000152587891,0 1.2599999904632568,12.210000038146973 1.2599999904632568,12.210000038146973 C1.2599999904632568,12.210000038146973 2.259999990463257,15.680000305175781 5.429999828338623,18.93000030517578 C5.429999828338623,24.979999542236328 5.429999828338623,43 5.429999828338623,43 C5.429999828338623,43 5.429999828338623,58.88999938964844 5.429999828338623,58.88999938964844 C5.429999828338623,58.88999938964844 0,99.05999755859375 0,99.05999755859375 C0,99.05999755859375 12.720000267028809,112.02999877929688 12.720000267028809,112.02999877929688 C12.720000267028809,112.02999877929688 18.790000915527344,118.22000122070312 18.790000915527344,118.22000122070312"></path></g></g><g transform="matrix(1,0,0,1,336.67999267578125,241.3000030517578)" opacity="1" style="display: block;"><g opacity="1" transform="matrix(2,0,0,2,0,0)"><path stroke-linecap="round" stroke-linejoin="round" fill-opacity="0" stroke="rgb(59,61,77)" stroke-opacity="1" stroke-width="2" d=" M0,1 C0,1 8.960000038146973,1 8.960000038146973,1"></path></g></g><g transform="matrix(1,0,0,1,359.3599853515625,254.89999389648438)" opacity="1" style="display: block;"><g opacity="1" transform="matrix(2,0,0,2,0,0)"><path stroke-linecap="round" stroke-linejoin="round" fill-opacity="0" stroke="rgb(59,61,77)" stroke-opacity="1" stroke-width="2" d=" M0,46.58000183105469 C0,46.58000183105469 9.8100004196167,129.55999755859375 9.8100004196167,129.55999755859375 C9.8100004196167,129.55999755859375 16.489999771118164,129.55999755859375 16.489999771118164,129.55999755859375 C16.489999771118164,129.55999755859375 18.670000076293945,90.55000305175781 20.350000381469727,54.400001525878906 C21.170000076293945,43.349998474121094 22.040000915527344,44.150001525878906 22.040000915527344,38.2400016784668 C22.040000915527344,32.33000183105469 19.690000534057617,17.860000610351562 19.690000534057617,14.289999961853027 C19.690000534057617,10.729999542236328 21.579999923706055,0 21.579999923706055,0"></path></g></g><g transform="matrix(1,0,0,1,383.6600036621094,171.83999633789062)" opacity="1" style="display: block;"><g opacity="1" transform="matrix(2,0,0,2,0,0)"><path stroke-linecap="round" stroke-linejoin="round" fill-opacity="0" stroke="rgb(59,61,77)" stroke-opacity="1" stroke-width="2" d=" M5.409999847412109,0 C5.409999847412109,0 0.7099999785423279,5.929999828338623 0,11.779999732971191 C6.889999866485596,15.010000228881836 13.760000228881836,18.399999618530273 13.760000228881836,18.399999618530273 C13.760000228881836,18.399999618530273 24.309999465942383,85.56999969482422 24.309999465942383,85.56999969482422 C24.309999465942383,85.56999969482422 20.360000610351562,86.66999816894531 20.360000610351562,86.66999816894531 C20.360000610351562,86.66999816894531 14.75,62.65999984741211 14.75,62.65999984741211"></path></g></g><g transform="matrix(1,0,0,1,394.6400146484375,472.3999938964844)" opacity="1" style="display: block;"><g opacity="1" transform="matrix(2,0,0,2,0,0)"><path stroke-linecap="round" stroke-linejoin="round" fill-opacity="0" stroke="rgb(59,61,77)" stroke-opacity="1" stroke-width="2" d=" M0,0 C0,0 11.930000305175781,11.319999694824219 11.930000305175781,11.319999694824219"></path></g></g><g transform="matrix(1,0,0,1,345.2200012207031,302.53997802734375)" opacity="1" style="display: block;"><g opacity="1" transform="matrix(2,0,0,2,0,0)"><path stroke-linecap="round" stroke-linejoin="round" fill-opacity="0" stroke="rgb(59,61,77)" stroke-opacity="1" stroke-width="2" d=" M0,1 C0,1 17.229999542236328,1 17.229999542236328,1"></path></g></g><g transform="matrix(1,0,0,1,350.8399963378906,128.1999969482422)" opacity="1" style="display: block;"><g opacity="1" transform="matrix(2,0,0,2,0,0)"><path stroke-linecap="round" stroke-linejoin="round" fill-opacity="0" stroke="rgb(59,61,77)" stroke-opacity="1" stroke-width="2" d=" M9.510000228881836,27.709999084472656 C9.510000228881836,27.709999084472656 2.119999885559082,27.709999084472656 2.119999885559082,27.709999084472656 C2.119999885559082,27.709999084472656 2.119999885559082,22.079999923706055 2.119999885559082,22.079999923706055 C2.119999885559082,22.079999923706055 0,22.079999923706055 0,22.079999923706055 C0,22.079999923706055 2.119999885559082,15.949999809265137 2.119999885559082,15.949999809265137 C2.119999885559082,15.949999809265137 2.119999885559082,14.220000267028809 2.119999885559082,9.6899995803833 C2.119999885559082,5.159999847412109 5.440000057220459,0 12.829999923706055,0 C20.209999084472656,0 22.979999542236328,3.069999933242798 22.979999542236328,3.069999933242798 C22.979999542236328,3.069999933242798 25.09000015258789,5.409999847412109 25.09000015258789,7.210000038146973"></path></g></g><g transform="matrix(1,0,0,1,347.70001220703125,514.1199951171875)" opacity="1" style="display: block;"><g opacity="1" transform="matrix(2,0,0,2,0,0)"><path stroke-linecap="round" stroke-linejoin="round" fill-opacity="0" stroke="rgb(59,61,77)" stroke-opacity="1" stroke-width="2" d=" M22.059999465942383,9.34000015258789 C22.059999465942383,9.34000015258789 0,9.34000015258789 0,9.34000015258789 C0,9.34000015258789 0,7.110000133514404 0,7.110000133514404 C0,7.110000133514404 13.069999694824219,4.090000152587891 13.069999694824219,4.090000152587891 C13.069999694824219,4.090000152587891 16.139999389648438,3.049999952316284 16.139999389648438,0"></path></g></g><g transform="matrix(0.6156615018844604,-0.7880107760429382,0.7880107760429382,0.6156615018844604,398.99847412109375,520.7732543945312)" opacity="1" style="display: block;"><g opacity="1" transform="matrix(2,0,0,2,0,0)"><path stroke-linecap="round" stroke-linejoin="round" fill-opacity="0" stroke="rgb(59,61,77)" stroke-opacity="1" stroke-width="2" d=" M22.059999465942383,0 C22.059999465942383,0 22.059999465942383,9.34000015258789 22.059999465942383,9.34000015258789 C22.059999465942383,9.34000015258789 0,9.34000015258789 0,9.34000015258789 C0,9.34000015258789 0,7.110000133514404 0,7.110000133514404 C0,7.110000133514404 13.069999694824219,4.090000152587891 13.069999694824219,4.090000152587891 C13.069999694824219,4.090000152587891 16.139999389648438,3.049999952316284 16.139999389648438,0"></path></g></g><g transform="matrix(1,0,0,1,431.52001953125,343.8800048828125)" opacity="1" style="display: block;"><g opacity="1" transform="matrix(2,0,0,2,0,0)"><path stroke-linecap="round" stroke-linejoin="round" fill-opacity="0" stroke="rgb(59,61,77)" stroke-opacity="1" stroke-width="2" d=" M0,0 C0,0 1.5,2.7200000286102295 2.130000114440918,5.25 C2.75,7.789999961853027 1.3200000524520874,13 3.119999885559082,17.309999465942383"></path></g></g><g transform="matrix(1,0,0,1,425.97998046875,345.96002197265625)" opacity="1" style="display: block;"><g opacity="1" transform="matrix(2,0,0,2,0,0)"><path stroke-linecap="round" stroke-linejoin="round" fill-opacity="0" stroke="rgb(59,61,77)" stroke-opacity="1" stroke-width="2" d=" M0,0 C0,0 0,7.309999942779541 0,7.309999942779541 C0,7.309999942779541 1.0199999809265137,8.010000228881836 1.0199999809265137,8.010000228881836"></path></g></g><g transform="matrix(1,0,0,1,219.8800048828125,232.0800018310547)" opacity="1" style="display: block;"><g opacity="1" transform="matrix(2,0,0,2,0,0)"><path stroke-linecap="round" stroke-linejoin="round" fill-opacity="0" stroke="rgb(59,61,77)" stroke-opacity="1" stroke-width="2" d=" M20.610000610351562,3.75 C20.610000610351562,3.75 0,0 0,0"></path></g></g><g transform="matrix(1,0,0,1,231.86000061035156,241.72000122070312)" opacity="1" style="display: block;"><g opacity="1" transform="matrix(2,0,0,2,0,0)"><path stroke-linecap="round" stroke-linejoin="round" fill-opacity="0" stroke="rgb(59,61,77)" stroke-opacity="1" stroke-width="2" d=" M0,0 C0,0 0.8700000047683716,3.2100000381469727 3.880000114440918,3.819999933242798 C6.880000114440918,4.429999828338623 7.809999942779541,2.119999885559082 13.109999656677246,3.2100000381469727"></path></g></g><g transform="matrix(1,0,0,1,400.82000732421875,121.94000244140625)" opacity="1" style="display: block;"><g opacity="1" transform="matrix(2,0,0,2,0,0)"><path stroke-linecap="round" stroke-linejoin="round" fill-opacity="0" stroke="rgb(59,61,77)" stroke-opacity="1" stroke-width="2" d=" M0,3.4700000286102295 C0,3.4700000286102295 2.7799999713897705,-0.4399999976158142 7.820000171661377,0.05000000074505806 C16.520000457763672,0.8999999761581421 14.109999656677246,10.8100004196167 19.299999237060547,18.530000686645508 C22.959999084472656,23.979999542236328 28.450000762939453,26.6299991607666 30.399999618530273,28.239999771118164 C31.309999465942383,28.979999542236328 32.9900016784668,30.59000015258789 33.91999816894531,32.63999938964844 C34.77000045776367,34.52000045776367 34.91999816894531,36.810001373291016 34.689998626708984,38.599998474121094 C34.04999923706055,43.66999816894531 31.31999969482422,49.029998779296875 21.65999984741211,49.029998779296875"></path></g></g><g transform="matrix(1,0,0,1,394.3800048828125,127.26000213623047)" opacity="1" style="display: block;"><g opacity="1" transform="matrix(2,0,0,2,0,0)"><path stroke-linecap="round" stroke-linejoin="round" fill-opacity="0" stroke="rgb(59,61,77)" stroke-opacity="1" stroke-width="2" d=" M4.739999771118164,2.8399999141693115 C4.739999771118164,2.8399999141693115 3.9700000286102295,1.350000023841858 2.299999952316284,0.28999999165534973 C0.6200000047683716,-0.7799999713897705 -1.2899999618530273,1.309999942779541 1.190000057220459,3.569999933242798"></path></g></g><g transform="matrix(1,0,0,1,326.94000244140625,531)" opacity="1" style="display: block;"><g opacity="1" transform="matrix(2,0,0,2,0,0)"><path stroke-linecap="round" stroke-linejoin="round" fill-opacity="0" stroke="rgb(59,61,77)" stroke-opacity="1" stroke-width="2" d=" M0,1 C0,1 50.91999816894531,1 50.91999816894531,1"></path></g></g><g transform="matrix(1,0,0,1,355.5799865722656,142.17999267578125)" opacity="1" style="display: block;"><g opacity="1" transform="matrix(2,0,0,2,0,0)"><path stroke-linecap="round" stroke-linejoin="round" fill-opacity="0" stroke="rgb(59,61,77)" stroke-opacity="1" stroke-width="2" d=" M0.17000000178813934,0 C-0.6299999952316284,2.559999942779541 1.340000033378601,6.679999828338623 6.539999961853027,6.679999828338623 C7.139999866485596,6.679999828338623 9.529999732971191,6.679999828338623 9.529999732971191,6.679999828338623 C9.529999732971191,6.679999828338623 9.529999732971191,10.279999732971191 9.529999732971191,10.279999732971191 C9.529999732971191,10.279999732971191 14.130000114440918,10.279999732971191 14.130000114440918,10.279999732971191 C14.130000114440918,10.279999732971191 14.130000114440918,13.079999923706055 14.130000114440918,13.079999923706055 C14.130000114440918,13.079999923706055 12.319999694824219,14.710000038146973 12.319999694824219,14.710000038146973 C12.319999694824219,14.710000038146973 13.229999542236328,17.440000534057617 16.56999969482422,18.729999542236328"></path></g></g><g transform="matrix(1,0,0,1,356.2200012207031,143.6199951171875)" opacity="1" style="display: block;"><g opacity="1" transform="matrix(2,0,0,2,0,0)"><path stroke-linecap="butt" stroke-linejoin="miter" fill-opacity="0" stroke-miterlimit="4" stroke="rgb(197,202,221)" stroke-opacity="1" stroke-width="1" d=" M1,1"></path></g></g><g transform="matrix(1,0,0,1,378.20001220703125,519.6199951171875)" opacity="1" style="display: block;"><g opacity="1" transform="matrix(2,0,0,2,0,0)"><path stroke-linecap="round" stroke-linejoin="round" fill-opacity="0" stroke="rgb(59,61,77)" stroke-opacity="1" stroke-width="2" d=" M0,1 C0,1 2.4200000762939453,2.109999895095825 4.670000076293945,1.5"></path></g></g><g transform="matrix(1,0,0,1,124,196)" opacity="1" style="display: block;"><g opacity="1" transform="matrix(2,0,0,2,0,0)"><path stroke-linecap="round" stroke-linejoin="round" fill-opacity="0" stroke="rgb(59,61,77)" stroke-opacity="1" stroke-width="2" d=" M5,1 C5,1 0,1 0,1"></path></g></g><g transform="matrix(0.8660253882408142,0.5,-0.5,0.8660253882408142,128.90988159179688,182.1079559326172)" opacity="1" style="display: block;"><g opacity="1" transform="matrix(2,0,0,2,0,0)"><path stroke-linecap="round" stroke-linejoin="round" fill-opacity="0" stroke="rgb(59,61,77)" stroke-opacity="1" stroke-width="2" d=" M5,1 C5,1 0,1 0,1"></path></g></g><g transform="matrix(0.5,0.8660253882408142,-0.8660253882408142,0.5,140.37205505371094,170.75987243652344)" opacity="1" style="display: block;"><g opacity="1" transform="matrix(2,0,0,2,0,0)"><path stroke-linecap="round" stroke-linejoin="round" fill-opacity="0" stroke="rgb(59,61,77)" stroke-opacity="1" stroke-width="2" d=" M5,1 C5,1 0,1 0,1"></path></g></g><g transform="matrix(1,0,0,1,148,172)" opacity="1" style="display: block;"><g opacity="1" transform="matrix(0,2,-2,0,9.5,-5.5)"><path stroke-linecap="round" stroke-linejoin="round" fill-opacity="0" stroke="rgb(59,61,77)" stroke-opacity="1" stroke-width="2" d=" M5.5,1.5 C5.5,1.5 0.5,1.5 0.5,1.5"></path></g></g><g clip-path="url(#__lottie_element_1006)" transform="matrix(1,0,0,1,0,0)" opacity="1" style="display: block;"><g transform="matrix(1,0,0,1,162,208)" opacity="0.03794142857144522" style="display: none;"><g opacity="1" transform="matrix(2,0,0,2,0,0)"><path stroke-linecap="round" stroke-linejoin="round" fill-opacity="0" stroke="rgb(21,195,154)" stroke-opacity="1" stroke-width="2" d=" M1,0 C1,0 1,13.039999961853027 1,13.039999961853027"></path></g></g></g><g transform="matrix(1,0,0,1,478.32000732421875,206.75999450683594)" opacity="1" style="display: block;"><g opacity="1" transform="matrix(2,0,0,2,0,0)"><path stroke-linecap="butt" stroke-linejoin="miter" fill-opacity="0" stroke-miterlimit="4" stroke="rgb(197,202,221)" stroke-opacity="1" stroke-width="1" d=" M1,1"></path></g></g></g></g></svg>