<svg width="218" height="203" viewBox="0 0 218 203" fill="none" xmlns="http://www.w3.org/2000/svg">
<path d="M47.1469 59.8506C47.704 59.8231 48.1936 60.0311 48.6036 60.3885C49.8121 61.8734 50.5018 63.5935 48.4862 63.5935C47.3703 63.5935 46.2541 63.2529 46.2541 62.2835C46.2541 62.2504 46.2539 62.2134 46.2536 62.1731C46.2536 62.1707 46.2536 62.1684 46.2536 62.166C46.2491 61.488 46.2385 59.8954 47.1469 59.8506Z" fill="#D1F2BD"/>
<path fill-rule="evenodd" clip-rule="evenodd" d="M2 77.2295C2 51.8465 19.2752 19.2201 44.0569 10.9856C73.2532 1.28425 111.446 -1.31165 136.682 19.4703C154.402 34.0624 164.089 51.6018 169.363 73.509C170.598 78.6405 171.004 84.0887 170.722 89.6062C170.056 102.653 165.546 116.087 159.076 126.64C146.539 147.092 122.531 160.889 98.5506 164.983C93.6505 165.819 88.7516 166.25 83.9519 166.25C54.4486 166.25 21.3072 144.019 10.3977 116.227C5.23956 103.087 2 91.48 2 77.2295ZM118.766 102.312C122.734 102.312 125.782 101.838 129.547 100.678C141.054 97.1325 151.887 81.7641 153.713 69.8769C157.196 47.2052 132.238 20.2416 114.644 22.3137C97.0499 24.3858 90.4694 38.3399 88.6656 46.2881C87.0361 53.4685 85.6042 60.4127 86.1516 67.8129C86.7111 75.3774 90.4308 85.1011 95.4602 90.8574C101.377 97.6288 109.61 102.312 118.766 102.312ZM62.1094 107.434C52.7984 116.354 36.573 119.036 26.6475 109.161C12.7121 95.2972 -0.0399799 38.3726 31.9942 38.3726C44.7195 38.3726 52.6823 39.3716 62.1094 45.8654C71.5365 52.3592 75.9092 57.2354 78.2637 65.1742C83.9905 84.4829 72.7533 97.2365 62.1094 107.434ZM48.6036 60.3885C48.1936 60.0311 47.704 59.8231 47.1469 59.8506C46.2385 59.8954 46.2491 61.488 46.2536 62.166C46.2536 62.1684 46.2536 62.1707 46.2536 62.1731C46.2539 62.2134 46.2541 62.2504 46.2541 62.2835C46.2541 63.2529 47.3703 63.5935 48.4862 63.5935C50.5018 63.5935 49.8121 61.8734 48.6036 60.3885Z" fill="#D1F2BD"/>
<path d="M98.5506 164.983C106.054 169.006 114.795 175.404 122.91 177.919C141.912 183.811 176.917 172.016 188.652 157.405C192.742 152.313 196.395 147.904 198.991 141.86C201.88 135.133 204.721 127.161 202.407 119.812C200.936 115.14 196.805 110.341 193.327 107.128C187.168 101.44 177.63 94.2972 170.722 89.6062C170.056 102.653 165.546 116.087 159.076 126.64C146.539 147.092 122.531 160.889 98.5506 164.983Z" fill="#9DC784"/>
<path d="M118.766 102.312C122.734 102.312 125.782 101.838 129.547 100.678C141.054 97.1325 151.887 81.7641 153.713 69.8769C157.196 47.2052 132.238 20.2416 114.644 22.3137C97.0499 24.3858 90.4694 38.3399 88.6656 46.2881C87.0361 53.4685 85.6042 60.4127 86.1516 67.8129C86.7111 75.3774 90.4308 85.1011 95.4602 90.8574C101.377 97.6288 109.61 102.312 118.766 102.312Z" fill="white"/>
<path fill-rule="evenodd" clip-rule="evenodd" d="M46.2536 62.166L46.2536 62.1731C46.2539 62.2134 46.2541 62.2504 46.2541 62.2835C46.2541 62.2487 46.2538 62.2087 46.2536 62.166Z" fill="#D1F2BD"/>
<path fill-rule="evenodd" clip-rule="evenodd" d="M26.6475 109.161C36.573 119.036 52.7984 116.354 62.1094 107.434C72.7533 97.2365 83.9905 84.4829 78.2637 65.1742C75.9092 57.2354 71.5365 52.3592 62.1094 45.8654C52.6823 39.3716 44.7195 38.3726 31.9942 38.3726C-0.0399799 38.3726 12.7121 95.2972 26.6475 109.161ZM47.1469 59.8506C47.704 59.8231 48.1936 60.0311 48.6036 60.3885C49.8121 61.8734 50.5018 63.5935 48.4862 63.5935C47.3703 63.5935 46.2541 63.2529 46.2541 62.2835C46.2541 62.2487 46.2538 62.2087 46.2536 62.166C46.2491 61.488 46.2385 59.8954 47.1469 59.8506Z" fill="white"/>
<path d="M152.97 26.3666C154.664 28.4339 157.38 27.6221 159.622 27.6221C160.313 27.9124 165.171 31.9445 165.49 31.5397C165.789 31.1592 167.097 30.0105 168.288 28.7866C164.585 25.6672 162.457 24.46 159.622 21C159.069 20.3249 159.217 17.7568 158.582 17.1753C157.162 19.6569 155.4 14.1305 155.4 14.1305C155.4 14.1305 159.792 15.0617 158.582 17.1753C159.217 17.7568 159.069 20.3249 159.622 21C162.457 24.46 164.585 25.6672 168.288 28.7866C169.592 27.4473 170.756 26.018 170.307 25.4069C169.02 23.6542 166.784 21.412 165.027 20.2017C166.586 14.1782 164.585 8.68339 158.018 8.57463C152.079 9.18292 148.094 4.07525 142.733 3C150.48 10.4365 147.79 20.0446 152.97 26.3666Z" fill="#9E9E9E"/>
<path d="M214 63C215.003 60.495 216 52.5 216 52.5C205.558 45.828 182.094 31.5397 170.307 25.4069C170.756 26.018 169.592 27.4473 168.288 28.7866C167.097 30.0105 165.789 31.1592 165.49 31.5397C172.38 34.4883 178.16 39.3073 184.5 44C193.511 50.6691 204.229 58.1218 214 63Z" fill="#D07E64"/>
<path d="M83.9519 166.25C54.4486 166.25 21.3072 144.019 10.3977 116.227C5.23956 103.087 2 91.48 2 77.2295C2 51.8465 19.2752 19.2201 44.0569 10.9856C73.2532 1.28425 111.446 -1.31165 136.682 19.4703C154.402 34.0624 164.089 51.6018 169.363 73.509M83.9519 166.25C88.7516 166.25 93.6505 165.819 98.5506 164.983M83.9519 166.25C78.2637 182.518 81.0415 191.01 55.5281 201M169.363 73.509C170.598 78.6405 171.004 84.0887 170.722 89.6062M169.363 73.509C176.108 70.3828 188.502 55.1893 184.5 44M105.054 55.1319C105.054 57.4316 109.748 57.9902 109.797 56.6035C109.839 55.3954 110.692 48.9396 109.059 48.5323C103.998 47.2703 104.601 53.4762 109.322 53.4762M44.022 63.2192C44.022 65.004 44.791 64.5865 45.8077 65.6521C46.2752 66.1421 48.6682 66.6431 49.2798 66.1304C50.5465 65.0683 50.1181 61.7088 48.6036 60.3885M48.6036 60.3885C48.1936 60.0311 47.704 59.8231 47.1469 59.8506C46.2385 59.8954 46.2491 61.488 46.2536 62.166M48.6036 60.3885C49.8121 61.8734 50.5018 63.5935 48.4862 63.5935C47.3703 63.5935 46.2541 63.2529 46.2541 62.2835M48.6036 60.3885C47.8446 59.456 46.8809 58.6162 46.2541 58.3534M46.2541 62.2835C46.2541 62.2504 46.2539 62.2134 46.2536 62.1731M46.2541 62.2835C46.2541 62.2487 46.2538 62.2087 46.2536 62.166M158.082 100.313C158.082 105.656 156.579 113.249 151.856 116.336C148.093 118.796 140.338 117.252 136.07 117.252M98.5506 164.983C106.054 169.006 114.795 175.404 122.91 177.919C141.912 183.811 176.917 172.016 188.652 157.405C192.742 152.313 196.395 147.904 198.991 141.86C201.88 135.133 204.721 127.161 202.407 119.812C200.936 115.14 196.805 110.341 193.327 107.128C187.168 101.44 177.63 94.2972 170.722 89.6062M98.5506 164.983C122.531 160.889 146.539 147.092 159.076 126.64C165.546 116.087 170.056 102.653 170.722 89.6062M46.2536 62.166L46.2536 62.1731M46.2536 62.166C46.2536 62.1684 46.2536 62.1707 46.2536 62.1731M184.5 44C178.16 39.3073 172.38 34.4883 165.49 31.5397M184.5 44C193.511 50.6691 204.229 58.1218 214 63C215.003 60.495 216 52.5 216 52.5C205.558 45.828 182.094 31.5397 170.307 25.4069M158.582 17.1753C159.217 17.7568 159.069 20.3249 159.622 21C162.457 24.46 164.585 25.6672 168.288 28.7866M158.582 17.1753C158.253 16.8744 158.582 17.6434 158.582 17.1753ZM158.582 17.1753C159.792 15.0617 155.4 14.1305 155.4 14.1305C155.4 14.1305 157.162 19.6569 158.582 17.1753ZM165.49 31.5397C165.789 31.1592 167.097 30.0105 168.288 28.7866M165.49 31.5397C165.171 31.9445 160.313 27.9124 159.622 27.6221C157.38 27.6221 154.664 28.4339 152.97 26.3666C147.79 20.0446 150.48 10.4365 142.733 3C148.094 4.07525 152.079 9.18292 158.018 8.57463C164.585 8.68339 166.586 14.1782 165.027 20.2017C166.784 21.412 169.02 23.6542 170.307 25.4069M170.307 25.4069C170.756 26.018 169.592 27.4473 168.288 28.7866M26.6475 109.161C36.573 119.036 52.7984 116.354 62.1094 107.434C72.7533 97.2365 83.9905 84.4829 78.2637 65.1742C75.9092 57.2354 71.5365 52.3592 62.1094 45.8654C52.6823 39.3716 44.7195 38.3726 31.9942 38.3726C-0.0399799 38.3726 12.7121 95.2972 26.6475 109.161ZM118.766 102.312C122.734 102.312 125.782 101.838 129.547 100.678C141.054 97.1325 151.887 81.7641 153.713 69.8769C157.196 47.2052 132.238 20.2416 114.644 22.3137C97.0499 24.3858 90.4694 38.3399 88.6656 46.2881C87.0361 53.4685 85.6042 60.4127 86.1516 67.8129C86.7111 75.3774 90.4308 85.1011 95.4602 90.8574C101.377 97.6288 109.61 102.312 118.766 102.312Z" stroke="black" stroke-width="3" stroke-linecap="round"/>
</svg>
