<svg width="179" height="173" viewBox="0 0 179 173" fill="none" xmlns="http://www.w3.org/2000/svg">
<path fill-rule="evenodd" clip-rule="evenodd" d="M5 78.5414C5 53.1584 22.2752 20.532 47.0569 12.2975C76.2532 2.5961 114.446 0.000189781 139.682 20.7821C157.402 35.3743 167.089 52.9136 172.363 74.8208C173.598 79.9524 174.004 85.4005 173.722 90.9181C173.056 103.965 168.546 117.399 162.076 127.952C149.539 148.403 125.531 162.201 101.551 166.295C96.6505 167.131 91.7516 167.562 86.9519 167.562C57.4485 167.562 24.3072 145.331 13.3977 117.539C8.23956 104.399 5 92.7918 5 78.5414ZM129.055 93.4107C143.055 88.9107 147.851 82.4727 148.555 66.4107C148.126 51.4477 141.055 36.9107 129.055 33.4107C117.055 29.9107 102.111 31.6082 96.5545 41.9107C90.998 52.2132 90.4366 56.3378 90.984 63.7379C91.5435 71.3025 95.2632 81.0262 100.293 86.7824C106.209 93.5538 115.055 97.9107 129.055 93.4107ZM59.8873 106.676C50.5763 115.596 34.3508 118.278 24.4254 108.404C10.49 94.5393 12 69.7277 22.5 55.7277C33 41.7277 52.5 52 56 54C59.5 56 69.5 68.0836 70 78.2277C70.5 88.3717 70.5312 96.4785 59.8873 106.676Z" fill="#F6D3CB"/>
<path d="M129.055 33.4107C117.055 29.9107 102.111 31.6082 96.5545 41.9107C90.998 52.2132 90.4366 56.3378 90.984 63.7379C91.5435 71.3025 95.2632 81.0262 100.293 86.7824C106.209 93.5538 115.055 97.9107 129.055 93.4107C143.055 88.9107 147.851 82.4727 148.555 66.4107C148.126 51.4477 141.055 36.9107 129.055 33.4107Z" fill="white"/>
<path d="M24.4254 108.404C34.3508 118.278 50.5763 115.596 59.8873 106.676C70.5312 96.4785 70.5 88.3717 70 78.2277C69.5 68.0836 59.5 56 56 54C52.5 52 33 41.7277 22.5 55.7277C12 69.7277 10.49 94.5393 24.4254 108.404Z" fill="white"/>
<path d="M126 116.297C126 121.64 127.185 135.224 105.5 139.797C86.9397 143.712 83.7677 133.297 79.5 133.297M112.151 51.4621C112.021 52.6317 111.102 55.8398 112.441 56.5488C114.745 57.7683 118.976 57.2573 120.779 55.4542C122.047 54.1868 120.263 51.2887 118.751 51.1724C117.448 51.0722 116.156 50.1848 114.759 50.0295C113.908 49.9349 113.01 50.0134 112.151 50.0134M43.771 65.6598C42.7967 65.6598 39.8224 65.1178 39.1994 66.2393C38.4757 67.5419 38.3897 69.5316 38.2819 70.9879C38.2041 72.0372 37.7863 74.6276 38.8453 75.1571C39.8787 75.6738 41.3288 75.8009 42.4832 75.8009C43.4637 75.8009 44.914 76.1066 45.6543 75.3663C46.5488 74.4719 46.2163 72.8698 46.2499 71.6585C46.3114 69.4449 45.3147 65.5738 42.4832 65.5738M47.0569 12.2975C22.2752 20.532 5 53.1584 5 78.5414C5 92.7918 8.23956 104.399 13.3977 117.539C24.3072 145.331 57.4485 167.562 86.9519 167.562C91.7516 167.562 96.6505 167.131 101.551 166.295C125.531 162.201 149.539 148.403 162.076 127.952C168.546 117.399 173.056 103.965 173.722 90.9181C174.004 85.4005 173.598 79.9524 172.363 74.8208C167.089 52.9136 157.402 35.3743 139.682 20.7821C114.446 0.000189781 76.2532 2.5961 47.0569 12.2975ZM24.4254 108.404C34.3508 118.278 50.5763 115.596 59.8873 106.676C70.5312 96.4785 70.5 88.3717 70 78.2277C69.5 68.0836 59.5 56 56 54C52.5 52 33 41.7277 22.5 55.7277C12 69.7277 10.49 94.5393 24.4254 108.404ZM129.055 93.4107C115.055 97.9107 106.209 93.5538 100.293 86.7824C95.2632 81.0262 91.5435 71.3025 90.984 63.7379C90.4366 56.3378 90.998 52.2132 96.5545 41.9107C102.111 31.6082 117.055 29.9107 129.055 33.4107C141.055 36.9107 148.126 51.4477 148.555 66.4107C147.851 82.4727 143.055 88.9107 129.055 93.4107Z" stroke="black" stroke-width="10" stroke-linecap="round"/>
</svg>
