<svg width="173" height="166" viewBox="0 0 173 166" fill="none" xmlns="http://www.w3.org/2000/svg">
<path d="M47.1469 57.8506C47.704 57.8231 48.1936 58.0311 48.6036 58.3885C49.8121 59.8734 50.5018 61.5935 48.4862 61.5935C47.3703 61.5935 46.2541 61.2529 46.2541 60.2835C46.2541 60.2504 46.2539 60.2134 46.2536 60.1731C46.2536 60.1708 46.2536 60.1684 46.2536 60.166C46.2491 59.488 46.2385 57.8954 47.1469 57.8506Z" fill="#D1F2BD"/>
<path fill-rule="evenodd" clip-rule="evenodd" d="M2 75.2296C2 49.8466 19.2752 17.2202 44.0569 8.98564C73.2532 -0.715733 111.446 -3.31164 136.682 17.4703C154.402 32.0624 164.089 49.6018 169.363 71.509C170.598 76.6405 171.004 82.0887 170.722 87.6062C170.056 100.653 165.546 114.087 159.076 124.64C146.539 145.092 122.531 158.889 98.5506 162.983C93.6505 163.819 88.7516 164.25 83.9519 164.25C54.4486 164.25 21.3072 142.019 10.3977 114.227C5.23956 101.087 2 89.48 2 75.2296ZM118.766 100.312C122.734 100.312 125.782 99.8385 129.547 98.6785C141.054 95.1325 151.887 79.7641 153.713 67.8769C157.196 45.2052 132.238 18.2417 114.644 20.3137C97.0499 22.3858 90.4694 36.3399 88.6656 44.2881C87.0361 51.4685 85.6042 58.4127 86.1516 65.8129C86.7111 73.3774 90.4308 83.1011 95.4602 88.8574C101.377 95.6288 109.61 100.312 118.766 100.312ZM62.1094 105.434C52.7984 114.354 36.573 117.036 26.6475 107.162C12.7121 93.2972 -0.0399799 36.3726 31.9942 36.3726C44.7195 36.3726 52.6823 37.3717 62.1094 43.8654C71.5365 50.3592 75.9092 55.2354 78.2637 63.1742C83.9905 82.4829 72.7533 95.2365 62.1094 105.434ZM48.6036 58.3885C48.1936 58.0311 47.704 57.8231 47.1469 57.8506C46.2385 57.8954 46.2491 59.488 46.2536 60.166C46.2536 60.1684 46.2536 60.1708 46.2536 60.1731C46.2539 60.2134 46.2541 60.2504 46.2541 60.2835C46.2541 61.2529 47.3703 61.5935 48.4862 61.5935C50.5018 61.5935 49.8121 59.8734 48.6036 58.3885Z" fill="#D1F2BD"/>
<path d="M118.766 100.312C122.734 100.312 125.782 99.8385 129.547 98.6785C141.054 95.1325 151.887 79.7641 153.713 67.8769C157.196 45.2052 132.238 18.2417 114.644 20.3137C97.0499 22.3858 90.4694 36.3399 88.6656 44.2881C87.0361 51.4685 85.6042 58.4127 86.1516 65.8129C86.7111 73.3774 90.4308 83.1011 95.4602 88.8574C101.377 95.6288 109.61 100.312 118.766 100.312Z" fill="white"/>
<path fill-rule="evenodd" clip-rule="evenodd" d="M46.2536 60.166L46.2536 60.1731C46.2539 60.2134 46.2541 60.2504 46.2541 60.2835C46.2541 60.2487 46.2538 60.2087 46.2536 60.166Z" fill="#D1F2BD"/>
<path fill-rule="evenodd" clip-rule="evenodd" d="M26.6475 107.162C36.573 117.036 52.7984 114.354 62.1094 105.434C72.7533 95.2365 83.9905 82.4829 78.2637 63.1742C75.9092 55.2354 71.5365 50.3592 62.1094 43.8654C52.6823 37.3717 44.7195 36.3726 31.9942 36.3726C-0.0399799 36.3726 12.7121 93.2972 26.6475 107.162ZM47.1469 57.8506C47.704 57.8231 48.1936 58.0311 48.6036 58.3885C49.8121 59.8734 50.5018 61.5935 48.4862 61.5935C47.3703 61.5935 46.2541 61.2529 46.2541 60.2835C46.2541 60.2487 46.2538 60.2087 46.2536 60.166C46.2491 59.488 46.2385 57.8954 47.1469 57.8506Z" fill="white"/>
<path d="M105.054 53.1319C105.054 55.4316 109.748 55.9902 109.797 54.6036C109.839 53.3954 110.692 46.9396 109.059 46.5323C103.998 45.2704 104.601 51.4762 109.322 51.4762M44.022 61.2192C44.022 63.004 44.791 62.5865 45.8077 63.6521C46.2752 64.1421 48.6682 64.6431 49.2798 64.1304C50.5465 63.0683 50.1181 59.7089 48.6036 58.3885M48.6036 58.3885C48.1936 58.0311 47.704 57.8231 47.1469 57.8506C46.2385 57.8954 46.2491 59.488 46.2536 60.166M48.6036 58.3885C49.8121 59.8734 50.5018 61.5935 48.4862 61.5935C47.3703 61.5935 46.2541 61.2529 46.2541 60.2835M48.6036 58.3885C47.8446 57.456 46.8809 56.6162 46.2541 56.3535M46.2541 60.2835C46.2541 60.2504 46.2539 60.2134 46.2536 60.1731M46.2541 60.2835C46.2541 60.2487 46.2538 60.2087 46.2536 60.166M158.082 98.3134C158.082 103.656 156.579 111.249 151.856 114.336C148.093 116.796 140.338 115.252 136.07 115.252M46.2536 60.166L46.2536 60.1731M46.2536 60.166C46.2536 60.1684 46.2536 60.1708 46.2536 60.1731M44.0569 8.98564C19.2752 17.2202 2 49.8466 2 75.2296C2 89.48 5.23956 101.087 10.3977 114.227C21.3072 142.019 54.4486 164.25 83.9519 164.25C88.7516 164.25 93.6505 163.819 98.5506 162.983C122.531 158.889 146.539 145.092 159.076 124.64C165.546 114.087 170.056 100.653 170.722 87.6062C171.004 82.0887 170.598 76.6405 169.363 71.509C164.089 49.6018 154.402 32.0624 136.682 17.4703C111.446 -3.31164 73.2532 -0.715733 44.0569 8.98564ZM26.6475 107.162C36.573 117.036 52.7984 114.354 62.1094 105.434C72.7533 95.2365 83.9905 82.4829 78.2637 63.1742C75.9092 55.2354 71.5365 50.3592 62.1094 43.8654C52.6823 37.3717 44.7195 36.3726 31.9942 36.3726C-0.0399799 36.3726 12.7121 93.2972 26.6475 107.162ZM118.766 100.312C122.734 100.312 125.782 99.8385 129.547 98.6785C141.054 95.1325 151.887 79.7641 153.713 67.8769C157.196 45.2052 132.238 18.2417 114.644 20.3137C97.0499 22.3858 90.4694 36.3399 88.6656 44.2881C87.0361 51.4685 85.6042 58.4127 86.1516 65.8129C86.7111 73.3774 90.4308 83.1011 95.4602 88.8574C101.377 95.6288 109.61 100.312 118.766 100.312Z" stroke="black" stroke-width="3" stroke-linecap="round"/>
</svg>
