<svg width="167" height="146" viewBox="0 0 167 146" fill="none" xmlns="http://www.w3.org/2000/svg">
<path fill-rule="evenodd" clip-rule="evenodd" d="M141.235 131.276C182.824 99.0333 166.139 25.9018 119.718 8.06437C105.89 2.75121 80.031 -0.999703 65.9728 5.27941C30.5304 21.3058 19.8004 53.4239 24.4457 81.8046C27.5333 100.668 37.4133 117.881 51.3441 127.62C55.49 130.518 59.6581 132.982 63.8158 135.05C94.6479 150.385 124.905 143.936 141.235 131.276ZM148.971 71.2013C145.137 77.2215 137.442 76.377 131.395 75.5088C119.159 73.7521 110.326 59.9337 113.918 47.9651C117.616 35.6446 126.21 31.5205 138.058 31.5205C148.971 34.9265 153.782 44.899 153.782 56.125C153.782 61.4016 151.791 66.7737 148.971 71.2013ZM49.8988 64.3771C46.705 59.4393 47.2211 53.0668 47.7091 47.4279C48.0946 42.9723 49.734 34.823 59.24 29.7296C65.0313 26.6265 75.1956 27.081 82.7777 32.6398C87.6409 36.2052 91.5002 41.4056 92.6809 48.7274C93.8616 56.0491 92.3207 81.3747 72.1686 77.1358C63.3928 75.2899 55.0663 72.3667 49.8988 64.3771Z" fill="#FFA7A7"/>
<path d="M3.82713 117.254C5.56508 121.745 7.62981 125.228 10.4628 129.06C21.6703 144.222 37.3121 140.959 51.8176 137.915C56.7051 136.89 59.6442 136.686 63.8158 135.05C59.6581 132.982 55.49 130.518 51.3441 127.62C37.4133 117.881 27.5333 100.668 24.4457 81.8046C14.833 81.8046 4.8516 94.1316 2.53989 102.495C1.35637 106.777 2.26866 113.226 3.82713 117.254Z" fill="#D14343"/>
<path fill-rule="evenodd" clip-rule="evenodd" d="M131.395 75.5088C137.442 76.377 145.137 77.2215 148.971 71.2013C151.791 66.7737 153.782 61.4016 153.782 56.125C153.782 44.899 148.971 34.9265 138.058 31.5205C126.21 31.5205 117.616 35.6446 113.918 47.9651C110.326 59.9337 119.159 73.7521 131.395 75.5088ZM132.449 67.4875C132.449 67.9819 132.474 68.4062 132.455 68.7907C131.222 69.3029 127.419 65.4595 130.431 65.4595C132.106 65.4595 132.449 65.9475 132.449 67.4875Z" fill="white"/>
<path fill-rule="evenodd" clip-rule="evenodd" d="M47.7091 47.4279C47.2211 53.0668 46.705 59.4393 49.8988 64.3771C55.0663 72.3667 63.3928 75.2899 72.1686 77.1358C92.3207 81.3747 93.8616 56.0491 92.6809 48.7274C91.5002 41.4056 87.6409 36.2052 82.7777 32.6398C75.1956 27.081 65.0313 26.6265 59.24 29.7296C49.734 34.823 48.0946 42.9723 47.7091 47.4279ZM80.5021 72.0964C78.5625 72.2111 77.6163 71.929 77.3127 70.5776C76.8182 70.0766 76.6129 69.313 76.8535 68.2249C76.9236 67.9081 77.0023 67.6326 77.0884 67.3951C77.2374 66.9837 77.4084 66.6864 77.5941 66.4859C77.8168 65.5325 78.1413 64.8151 78.5861 65.1727C79.3028 65.7489 80.3784 65.29 81.2359 65.7463C82.1624 66.2392 82.3366 67.2744 82.3366 68.2249C82.3366 70.1574 82.3886 70.9672 81.2242 71.2412C81.1728 71.737 80.9518 72.0699 80.5021 72.0964Z" fill="white"/>
<path d="M143.357 97.5757C143.357 103.123 141.072 109.765 134.219 109.382C129.175 109.101 122.591 103.513 117.739 107.415C114.033 110.394 114.274 115.808 110.559 118.711C105.735 122.482 98.4395 114.63 93.4263 114.63M24.4457 81.8046C14.833 81.8046 4.8516 94.1316 2.53989 102.495C1.35637 106.777 2.26866 113.226 3.82713 117.254C5.56508 121.745 7.62981 125.228 10.4628 129.06C21.6703 144.222 37.3121 140.959 51.8176 137.915C56.7051 136.89 59.6442 136.686 63.8158 135.05M24.4457 81.8046C19.8004 53.4239 30.5304 21.3058 65.9728 5.27941C80.031 -0.999703 105.89 2.75121 119.718 8.06437C166.139 25.9018 182.824 99.0333 141.235 131.276C124.905 143.936 94.6479 150.385 63.8158 135.05M24.4457 81.8046C27.5333 100.668 37.4133 117.881 51.3441 127.62C55.49 130.518 59.6581 132.982 63.8158 135.05M77.9338 64.3533C77.1099 64.4568 77.0326 66.0111 77.0884 67.3951M77.0884 67.3951C77.1212 68.2094 77.2001 68.9648 77.2001 69.3311C77.2001 69.3747 77.2003 69.4178 77.2009 69.4602M77.0884 67.3951C77.2374 66.9837 77.4084 66.6864 77.5941 66.4859M77.0884 67.3951C77.0023 67.6326 76.9236 67.9081 76.8535 68.2249C76.6129 69.313 76.8182 70.0766 77.3127 70.5776M77.2009 69.4602C77.2067 69.8954 77.2425 70.2651 77.3127 70.5776M77.2009 69.4602C77.212 69.0453 77.3331 67.6034 77.5941 66.4859M77.2009 69.4602C77.2003 69.4813 77.2001 69.4998 77.2001 69.5154M77.3127 70.5776C77.6163 71.929 78.5625 72.2111 80.5021 72.0964C80.9518 72.0699 81.1728 71.737 81.2242 71.2412M77.3127 70.5776C77.8536 71.1254 78.7404 71.359 79.7683 71.359C80.3932 71.359 80.8662 71.3254 81.2242 71.2412M81.2242 71.2412C81.4243 69.3108 79.0539 64.9096 77.5941 66.4859M81.2242 71.2412C82.3886 70.9672 82.3366 70.1574 82.3366 68.2249C82.3366 67.2744 82.1624 66.2392 81.2359 65.7463C80.3784 65.29 79.3028 65.7489 78.5861 65.1727C78.1413 64.8151 77.8168 65.5325 77.5941 66.4859M133.549 64.3533C131.655 64.3533 129.037 64.6469 128.433 66.7705C127.934 68.5249 129.267 72.6804 131.633 70.5396C132.26 69.9724 132.422 69.4378 132.455 68.7907M132.455 68.7907C132.474 68.4062 132.449 67.9819 132.449 67.4875C132.449 65.9475 132.106 65.4595 130.431 65.4595C127.419 65.4595 131.222 69.3029 132.455 68.7907ZM132.455 68.7907C132.677 68.6983 132.816 68.4643 132.816 68.0405M131.395 75.5088C137.442 76.377 145.137 77.2215 148.971 71.2013C151.791 66.7737 153.782 61.4016 153.782 56.125C153.782 44.899 148.971 34.9265 138.058 31.5205C126.21 31.5205 117.616 35.6446 113.918 47.9651C110.326 59.9337 119.159 73.7521 131.395 75.5088ZM59.24 29.7296C49.734 34.823 48.0946 42.9723 47.7091 47.4279C47.2211 53.0668 46.705 59.4393 49.8988 64.3771C55.0663 72.3667 63.3928 75.2899 72.1686 77.1358C92.3207 81.3747 93.8616 56.0491 92.6809 48.7274C91.5002 41.4056 87.6409 36.2052 82.7777 32.6398C75.1956 27.081 65.0313 26.6265 59.24 29.7296Z" stroke="black" stroke-width="3" stroke-linecap="round"/>
</svg>
