<svg width="158" height="127" viewBox="0 0 158 127" fill="none" xmlns="http://www.w3.org/2000/svg">
<path fill-rule="evenodd" clip-rule="evenodd" d="M120.165 42.3224C116.91 30.3848 110.451 21.3746 101.933 12.8562C87.1002 -1.97636 47.5 0.928155 34.8127 6.68491C22.1254 12.4417 7.38699 27.9035 3.01385 47.5826C-2.71609 73.3673 16.6429 101.202 40.885 110.5C42.8109 111.239 44.7676 111.86 46.745 112.355C58.5881 115.315 72.855 116.087 84.7256 113.603C89.1767 112.671 94.1724 110.256 98.7172 107.253C102.732 104.601 106.396 101.489 109.021 98.5354C117 89.5589 121.349 74.8667 121.964 61.1038C122.265 54.3595 121.67 47.8384 120.165 42.3224ZM37.1895 27.9608C42.3007 27.9282 51.3164 31.1714 55.9978 41.3852C59.7194 49.5053 56.7801 63.8705 43.7801 67.8705C36.0045 70.2629 20.7124 68.8572 17.7751 58.8703C15.932 52.6036 16.1117 46.9391 17.8761 40.5872C20.9868 29.3887 32.0783 27.9935 37.1895 27.9608ZM88.8264 67.0521C86.6554 67.0521 84.9526 66.7395 83.0081 65.9208C78.4767 64.0129 75.4478 61.0469 73.8262 56.5066C70.4371 47.0172 71.3605 30.9074 82.3819 27.2336C85.4471 26.2118 88.7438 25.8571 91.3719 26.1426C94 26.4282 101.603 30.0268 106.109 33.6882C110.46 37.2233 111.918 41.9029 111.918 47.3348C111.918 52.2584 108.925 59.1517 104.736 62.0521C99.8412 65.4406 94.7604 67.0521 88.8264 67.0521Z" fill="#EBD8BD"/>
<path fill-rule="evenodd" clip-rule="evenodd" d="M83.0081 65.9208C84.9526 66.7395 86.6554 67.0521 88.8264 67.0521C94.7604 67.0521 99.8412 65.4406 104.736 62.0521C108.925 59.1517 111.918 52.2584 111.918 47.3348C111.918 41.9029 110.46 37.2233 106.109 33.6882C101.603 30.0268 94 26.4282 91.3719 26.1426C88.7438 25.8571 85.4471 26.2118 82.3819 27.2336C71.3605 30.9074 70.4371 47.0172 73.8262 56.5066C75.4478 61.0469 78.4767 64.0129 83.0081 65.9208ZM79 38.9793C79 36.2655 80.6637 34.1838 83.5703 35.3141C87.6316 36.8935 87.5127 40.8614 84.6159 42.3798C81.9286 43.7883 79 41.1919 79 38.9793Z" fill="white"/>
<path fill-rule="evenodd" clip-rule="evenodd" d="M55.9978 41.3852C51.3164 31.1714 42.3007 27.9282 37.1895 27.9608C32.0783 27.9935 20.9868 29.3887 17.8761 40.5872C16.1117 46.9391 15.932 52.6036 17.7751 58.8703C20.7124 68.8572 36.0045 70.2629 43.7801 67.8705C56.7801 63.8705 59.7194 49.5053 55.9978 41.3852ZM28.4662 35C29.7053 35 32.2875 36.1437 32.904 37.2741C35.8082 42.5984 28.8978 44.0178 26.4267 41.4902C23.9556 38.9627 24.7316 35 28.4662 35Z" fill="white"/>
<path d="M83.5703 35.3141C80.6637 34.1838 79 36.2655 79 38.9793C79 41.1919 81.9286 43.7883 84.6159 42.3798C87.5127 40.8614 87.6316 36.8935 83.5703 35.3141Z" fill="white"/>
<path d="M32.904 37.2741C32.2875 36.1437 29.7053 35 28.4662 35C24.7316 35 23.9556 38.9627 26.4267 41.4902C28.8978 44.0178 35.8082 42.5984 32.904 37.2741Z" fill="white"/>
<path d="M151.008 62.215C149.623 60.5292 145 56.4282 137.5 57.4282C130 58.4282 129.5 61.9282 121.964 61.1038C121.349 74.8667 117 89.5589 109.021 98.5354C106.396 101.489 102.732 104.601 98.7172 107.253C102.637 115.093 118.282 117.185 125.462 116.387C129.161 115.976 138.436 112.944 141.28 110.559C147.25 105.552 152.916 99.6327 154.594 91.2456C156.498 81.724 157.554 70.1837 151.008 62.215Z" fill="#D0A565"/>
<path d="M121.964 61.1038C121.349 74.8667 117 89.5589 109.021 98.5354C106.396 101.489 102.732 104.601 98.7172 107.253M121.964 61.1038C122.265 54.3595 121.67 47.8384 120.165 42.3224C116.91 30.3848 110.451 21.3746 101.933 12.8562C87.1002 -1.97636 47.5 0.928155 34.8127 6.68491C22.1254 12.4417 7.38699 27.9035 3.01385 47.5826C-2.71609 73.3673 16.6429 101.202 40.885 110.5M121.964 61.1038C129.5 61.9282 130 58.4282 137.5 57.4282C145 56.4282 149.623 60.5292 151.008 62.215C157.554 70.1837 156.498 81.724 154.594 91.2456C152.916 99.6327 147.25 105.552 141.28 110.559C138.436 112.944 129.161 115.976 125.462 116.387C118.282 117.185 102.637 115.093 98.7172 107.253M98.7172 107.253C94.1724 110.256 89.1767 112.671 84.7256 113.603C72.855 116.087 58.5881 115.315 46.745 112.355C44.7676 111.86 42.8109 111.239 40.885 110.5M98.7172 107.253C97 112.355 93.5 117 95.3661 124.741M40.885 110.5C40.3052 113.109 34.3468 113.603 34.3468 119.898M47.7313 90.7986C47.7313 95.6202 57.2948 99.1193 61.3806 99.2706C68.7391 99.5431 74.9001 95.341 78.2303 88.6806M55.9978 41.3852C51.3164 31.1714 42.3007 27.9282 37.1895 27.9608C32.0783 27.9935 20.9868 29.3887 17.8761 40.5872C16.1117 46.9391 15.932 52.6036 17.7751 58.8703C20.7124 68.8572 36.0045 70.2629 43.7801 67.8705C56.7801 63.8705 59.7194 49.5053 55.9978 41.3852ZM83.0081 65.9208C84.9526 66.7395 86.6554 67.0521 88.8264 67.0521C94.7604 67.0521 99.8412 65.4406 104.736 62.0521C108.925 59.1517 111.918 52.2584 111.918 47.3348C111.918 41.9029 110.46 37.2233 106.109 33.6882C101.603 30.0268 94 26.4282 91.3719 26.1426C88.7438 25.8571 85.4471 26.2118 82.3819 27.2336C71.3605 30.9074 70.4371 47.0172 73.8262 56.5066C75.4478 61.0469 78.4767 64.0129 83.0081 65.9208ZM32.904 37.2741C32.2875 36.1437 29.7053 35 28.4662 35C24.7316 35 23.9556 38.9627 26.4267 41.4902C28.8978 44.0178 35.8082 42.5984 32.904 37.2741ZM83.5703 35.3141C80.6637 34.1838 79 36.2655 79 38.9793C79 41.1919 81.9286 43.7883 84.6159 42.3798C87.5127 40.8614 87.6316 36.8935 83.5703 35.3141Z" stroke="black" stroke-width="3" stroke-linecap="round"/>
</svg>
