<svg width="226" height="218" viewBox="0 0 226 218" fill="none" xmlns="http://www.w3.org/2000/svg">
<path fill-rule="evenodd" clip-rule="evenodd" d="M201.009 196.748C192.243 207.392 180.043 212.315 167.068 215C151.892 218.14 103.122 211.692 78.4037 196.678C73.5112 193.706 69.561 190.399 67 186.764C46.7038 161.308 62.3773 151.845 80.1613 147.184C85.5443 145.774 91.1206 144.803 95.9513 143.962L95.9524 143.962L95.9539 143.962L95.9563 143.962C98.361 143.543 100.581 143.157 102.5 142.764C130.463 137.044 143.649 126.246 156.677 100.189C158.416 96.7108 160.52 92.6132 163.14 88.9891C166.909 83.7752 171.746 79.5413 178.101 79.5413C185.854 79.5413 194.327 80.9065 201.769 84.7641C210.842 89.4673 218.382 97.8753 221.218 112.031C228.52 139.777 218.959 174.951 201.009 196.748ZM198.326 170.951C217.036 159.563 213 130.5 198.409 123.84C183.819 117.181 152.686 147.553 168.855 165.624C176.954 174.676 187.304 177.66 198.326 170.951ZM161.115 194.905C157.33 201.354 151.296 205.393 143.538 205.393C119.83 205.393 98.4335 199.371 112 169.525C117.759 156.856 136.541 155.251 149 163C160.318 170.039 167.885 183.372 161.115 194.905Z" fill="#B0CFA9"/>
<path d="M102.5 142.764C130.463 137.044 143.649 126.246 156.677 100.189C158.416 96.7108 160.52 92.6132 163.14 88.9891C161.998 86.7051 153.19 84.4573 150.987 84.4573C146.123 84.4573 141.741 85.0055 137.032 85.5944L136.682 85.6382C128.725 86.6329 120.977 87.9849 113.336 90.8001C108.027 92.7558 104.886 95.6393 100.751 99.7745C95.7585 104.767 90.926 109.506 86.9185 115.294C83.7782 119.83 79.0238 126.13 79.0238 131.826L80.1613 147.184C85.5443 145.774 91.1206 144.803 95.9513 143.962L95.9524 143.962L95.9539 143.962L95.9563 143.962C98.361 143.543 100.581 143.157 102.5 142.764Z" fill="#417634"/>
<path d="M198.326 170.951C217.036 159.563 213 130.5 198.409 123.84C183.819 117.181 152.686 147.553 168.855 165.624C176.954 174.676 187.304 177.66 198.326 170.951Z" fill="white"/>
<path d="M143.538 205.393C151.296 205.393 157.33 201.354 161.115 194.905C167.885 183.372 160.318 170.039 149 163C136.541 155.251 117.759 156.856 112 169.525C98.4335 199.371 119.83 205.393 143.538 205.393Z" fill="white"/>
<path d="M163.14 88.9891C161.998 86.7051 153.19 84.4573 150.987 84.4573C146.123 84.4573 141.741 85.0055 137.032 85.5944L136.682 85.6382C128.725 86.6329 120.977 87.9849 113.336 90.8001C108.027 92.7558 104.886 95.6393 100.751 99.7745C95.7585 104.767 90.926 109.506 86.9185 115.294C83.7782 119.83 79.0238 126.13 79.0238 131.826L80.1613 147.184M163.14 88.9891C166.909 83.7752 171.746 79.5413 178.101 79.5413C185.854 79.5413 194.327 80.9065 201.769 84.7641M163.14 88.9891C160.52 92.6132 158.416 96.7108 156.677 100.189C143.649 126.246 130.463 137.044 102.5 142.764C100.581 143.157 98.361 143.543 95.9563 143.962L95.9539 143.962L95.9524 143.962L95.9513 143.962C91.1206 144.803 85.5443 145.774 80.1613 147.184M159.191 127C151.995 127 132.18 129.048 143.333 145.5M179.835 2.43804C195.837 10.4389 209.204 22.5423 202.5 39.5C196.029 55.8671 190.023 65.6579 201.769 84.7641M201.769 84.7641C210.842 89.4673 218.382 97.8753 221.218 112.031C228.52 139.777 218.959 174.951 201.009 196.748C192.243 207.392 180.043 212.315 167.068 215C151.892 218.14 103.122 211.692 78.4037 196.678M1.60541 151.089C23.7348 139.58 34.5 215 78.4037 196.678M184.39 166.688C184.39 163.834 186.38 162.456 189 161C193.842 158.31 188.848 174.008 186.177 168.963M151.5 192C151.5 198.059 156.809 196.935 156.809 191.621C156.809 186.557 145.667 191.359 151.5 194.275M80.1613 147.184C62.3773 151.845 46.7038 161.308 67 186.764C69.561 190.399 73.5112 193.706 78.4037 196.678M198.326 170.951C217.036 159.563 213 130.5 198.409 123.84C183.819 117.181 152.686 147.553 168.855 165.624C176.954 174.676 187.304 177.66 198.326 170.951ZM143.538 205.393C151.296 205.393 157.33 201.354 161.115 194.905C167.885 183.372 160.318 170.039 149 163C136.541 155.251 117.759 156.856 112 169.525C98.4335 199.371 119.83 205.393 143.538 205.393Z" stroke="black" stroke-width="3" stroke-linecap="round"/>
</svg>
