<svg width="222" height="173" viewBox="0 0 222 173" fill="none" xmlns="http://www.w3.org/2000/svg">
<path d="M167.898 59.68C148.498 59.68 125.89 95.2114 139.09 112.484C146.718 122.466 156.302 126.192 168.405 126.192C181.987 126.192 198.018 110.861 198.848 96.7441C200.243 73.0125 186.601 65.9186 167.898 59.68Z" fill="white"/>
<path d="M146.368 57.3065C149.712 43.9212 150.083 35.4434 137.651 22.3735C127.638 15.2003 123.733 13.4766 105.718 15.0623C99 16 87.1719 26.0619 84.3073 35.4434C81.7849 43.7039 79.1415 56.6972 83.9406 64.8012C89.9523 74.9529 99.6768 80.8633 111.868 80.8633C125.828 80.8633 142.869 71.3114 146.368 57.3065Z" fill="white"/>
<path fill-rule="evenodd" clip-rule="evenodd" d="M218.918 68.3678C214.13 44.4137 193.401 25.2505 172.182 15.0001C150.983 4.75914 107.037 -4.05226 84.1797 7.38417C67.4389 7.38417 46.5047 37.03 43.0817 50.5409C40.089 62.3535 38.7549 75.4006 39.8431 88.1127C41.0379 102.072 45.1536 115.627 53.2012 126.7C64.5628 142.333 81.8561 155.419 100.895 160.182C102.945 160.694 104.979 161.152 107 161.556C136.222 167.39 162.524 161.783 188.475 144.47C210.329 129.891 224.068 94.1372 218.918 68.3678ZM139.09 112.484C125.89 95.2114 148.498 59.68 167.898 59.68C186.601 65.9186 200.243 73.0125 198.848 96.7441C198.018 110.861 181.987 126.192 168.405 126.192C156.302 126.192 146.718 122.466 139.09 112.484ZM137.651 22.3735C150.083 35.4434 149.712 43.9212 146.368 57.3065C142.869 71.3114 125.828 80.8633 111.868 80.8633C99.6768 80.8633 89.9523 74.9529 83.9406 64.8012C79.1415 56.6972 81.7849 43.7039 84.3073 35.4434C87.1719 26.0619 99 16 105.718 15.0623C123.733 13.4766 127.638 15.2003 137.651 22.3735Z" fill="#ABE8E8"/>
<path d="M100.895 160.182C81.8561 155.419 64.5628 142.333 53.2012 126.7C45.1536 115.627 41.0379 102.072 39.8431 88.1127C-8.63457 88.1127 2.12135 144.271 39.5818 163.764C60.4188 174.607 84.7764 172.675 107 161.556C104.979 161.152 102.945 160.694 100.895 160.182Z" fill="#499D9D"/>
<path d="M63.8844 115.022C66.131 120.793 71.8631 127.586 76.9822 130.432C81.4098 132.894 93.4642 133.579 96.5324 127.461M107 161.556C84.7764 172.675 60.4188 174.607 39.5818 163.764C2.12135 144.271 -8.63457 88.1127 39.8431 88.1127M107 161.556C125.065 161.556 128.833 142.66 128.833 126.179M107 161.556C104.979 161.152 102.945 160.694 100.895 160.182C81.8561 155.419 64.5628 142.333 53.2012 126.7C45.1536 115.627 41.0379 102.072 39.8431 88.1127M107 161.556C136.222 167.39 162.524 161.783 188.475 144.47C210.329 129.891 224.068 94.1372 218.918 68.3678C214.13 44.4137 193.401 25.2505 172.182 15.0001C150.983 4.75914 107.037 -4.05226 84.1797 7.38417C67.4389 7.38417 46.5047 37.03 43.0817 50.5409C40.089 62.3535 38.7549 75.4006 39.8431 88.1127M125.785 46.4791C123.441 46.4791 117.647 48.0599 118.71 51.782C121.34 60.9944 132.34 48.51 123.248 48.51M158.765 87.605C160.253 83.1388 164.174 95.2209 157.75 95.2209C153.412 95.2209 155.4 85.0663 160.287 85.0663M39.392 81.963C25.0255 81.1644 14.0276 65.2632 2 59.2453M167.898 59.68C148.498 59.68 125.89 95.2114 139.09 112.484C146.718 122.466 156.302 126.192 168.405 126.192C181.987 126.192 198.018 110.861 198.848 96.7441C200.243 73.0125 186.601 65.9186 167.898 59.68ZM83.9406 64.8012C79.1415 56.6972 81.7849 43.7039 84.3073 35.4434C87.1719 26.0619 99 16 105.718 15.0623C123.733 13.4766 127.638 15.2003 137.651 22.3735C150.083 35.4434 149.712 43.9212 146.368 57.3065C142.869 71.3114 125.828 80.8633 111.868 80.8633C99.6768 80.8633 89.9523 74.9529 83.9406 64.8012Z" stroke="black" stroke-width="3" stroke-linecap="round"/>
</svg>
