<svg width="194" height="166" viewBox="0 0 194 166" fill="none" xmlns="http://www.w3.org/2000/svg">
<path d="M123.383 47.2411C123.256 45.0834 127.65 44.4431 126.45 47.2767C126.434 47.2852 126.417 47.2937 126.4 47.3021C125.991 47.5067 123.418 47.829 123.383 47.2411Z" fill="#91C8E7"/>
<path d="M75.0627 48.3782C75.4011 46.8553 76.3192 46.6301 77.4917 46.5992C78.0603 46.0247 78.8878 45.8471 78.8878 47.0067C78.8878 47.2493 78.9182 47.5899 78.9528 47.9774C79.0131 48.6516 79.086 49.468 79.0335 50.1579C78.9852 50.7935 78.8304 51.3218 78.4611 51.5328C77.9822 51.8064 77.645 52.1104 77.3665 52.3615C76.7051 52.9578 76.3744 53.2559 75.2608 52.1423C74.763 51.6445 74.902 49.1016 75.0627 48.3782Z" fill="#91C8E7"/>
<path fill-rule="evenodd" clip-rule="evenodd" d="M128.915 74.2543C134.757 75.5525 141.28 74.1247 145.937 70.3987C157.413 61.2177 154.198 42.785 143.88 34.3426C138.356 29.8231 134.003 29.5705 124.252 32.2853C114.5 35 109.014 50.7802 111.572 59.9903C113.62 67.3618 121.926 72.7012 128.915 74.2543ZM123.383 47.2411C123.256 45.0834 127.65 44.4431 126.45 47.2767C126.434 47.2852 126.417 47.2937 126.4 47.3021C125.991 47.5067 123.418 47.829 123.383 47.2411Z" fill="white"/>
<path fill-rule="evenodd" clip-rule="evenodd" d="M70.4873 79.4661C76.987 79.4661 83.7497 78.5214 87.982 73.0351C92.6829 66.9414 96.1959 50.8444 91.548 43.9585C83.9799 32.7465 69.1762 27.26 57.9143 36.5452C48.3432 38.529 44.9767 47.2886 44.9767 57.3081C44.9767 69.7468 59.1475 79.4661 70.4873 79.4661ZM75.0627 48.3782C75.4011 46.8553 76.3192 46.6301 77.4917 46.5992C78.0603 46.0247 78.8878 45.8471 78.8878 47.0067C78.8878 47.2493 78.9182 47.5899 78.9528 47.9774C79.0131 48.6516 79.086 49.468 79.0335 50.1579C78.9852 50.7935 78.8304 51.3218 78.4611 51.5328C77.9822 51.8064 77.645 52.1104 77.3665 52.3615C76.7051 52.9578 76.3744 53.2559 75.2608 52.1423C74.763 51.6445 74.902 49.1016 75.0627 48.3782Z" fill="white"/>
<path fill-rule="evenodd" clip-rule="evenodd" d="M19.5917 54.6773C16.9956 65.3504 15.13 77.4087 17.2307 88.3794C20.8703 107.386 41.4444 122.474 59 128C78.7354 134.213 105.601 135.776 124.818 128.007C128.404 126.557 131.996 124.688 135.5 122.476C150.509 113.001 163.914 97.2274 168.427 81.1112C171.513 70.0905 174.803 53.369 168.89 42.6178C160.082 26.6042 135.307 11.3783 118.414 6.77112C97.5858 1.09062 83.9837 -0.946211 64.5 8.79566C56.0714 3.29566 25.4292 30.6789 19.5917 54.6773ZM145.937 70.3987C141.28 74.1247 134.757 75.5525 128.915 74.2543C121.926 72.7012 113.62 67.3618 111.572 59.9903C109.014 50.7802 114.5 35 124.252 32.2853C134.003 29.5705 138.356 29.8231 143.88 34.3426C154.198 42.785 157.413 61.2177 145.937 70.3987ZM126.45 47.2767C127.65 44.4431 123.256 45.0834 123.383 47.2411C123.418 47.829 125.991 47.5067 126.4 47.3021C126.417 47.2937 126.434 47.2852 126.45 47.2767ZM70.4873 79.4661C76.987 79.4661 83.7497 78.5214 87.982 73.0351C92.6829 66.9414 96.1959 50.8444 91.548 43.9585C83.9799 32.7465 69.1762 27.26 57.9143 36.5452C48.3432 38.529 44.9767 47.2886 44.9767 57.3081C44.9767 69.7468 59.1475 79.4661 70.4873 79.4661ZM75.0627 48.3782C75.4011 46.8553 76.3192 46.6301 77.4917 46.5992C78.0603 46.0247 78.8878 45.8471 78.8878 47.0067C78.8878 47.2493 78.9182 47.5899 78.9528 47.9774C79.0131 48.6516 79.086 49.468 79.0335 50.1579C78.9852 50.7935 78.8304 51.3218 78.4611 51.5328C77.9822 51.8064 77.645 52.1104 77.3665 52.3615C76.7051 52.9578 76.3744 53.2559 75.2608 52.1423C74.763 51.6445 74.902 49.1016 75.0627 48.3782ZM116.144 96.4961C117.038 95.396 118.661 93.4005 118.661 94.6753C118.661 104.32 116.156 113.122 107.735 118.424C101.787 122.169 71 119 74.913 102.175C83.4143 107.949 90.9143 111.449 101.914 108.449C106.537 107.189 109.9 103.435 113.139 99.8198C113.191 99.7613 113.244 99.7024 113.296 99.644C114.082 98.767 114.862 97.9006 115.652 97.0826C115.749 96.9821 115.924 96.7661 116.144 96.4961Z" fill="#91C8E7"/>
<path d="M49.9143 144.465C49.9143 154.57 79.7351 163.949 88.4143 163.949C110.177 163.949 118.862 166.085 137.989 152.844C153.148 142.349 146.558 132.211 135.5 122.476C131.996 124.688 128.404 126.557 124.818 128.007C105.601 135.776 78.7354 134.213 59 128C53.9777 132.701 49.9143 136.35 49.9143 144.465Z" fill="#1D78AB"/>
<path d="M74.913 102.175C71 119 101.787 122.169 107.735 118.424C116.156 113.122 118.661 104.32 118.661 94.6753C118.661 93.4005 117.038 95.396 116.144 96.4961C115.924 96.7661 115.749 96.9821 115.652 97.0826C114.862 97.9006 114.082 98.767 113.296 99.644L113.139 99.8198C109.9 103.435 106.537 107.189 101.914 108.449C90.9143 111.449 83.4143 107.949 74.913 102.175Z" fill="#667882"/>
<path d="M154.076 106.341C168.594 98.8861 184.206 84.4263 191.991 69.6766M20.7491 100.925C7.91428 90.9494 2 66.4917 2 45.0945M62.2581 36.1255C60.686 36.1255 59.2406 36.2703 57.9143 36.5452M57.9143 36.5452C48.3432 38.529 44.9767 47.2886 44.9767 57.3081C44.9767 69.7468 59.1475 79.4661 70.4873 79.4661C76.987 79.4661 83.7497 78.5214 87.982 73.0351C92.6829 66.9414 96.1959 50.8444 91.548 43.9585C83.9799 32.7465 69.1762 27.26 57.9143 36.5452ZM124.755 43.9494C122.057 43.9494 120.914 45.2987 120.914 48.064C120.914 49.2889 122.218 49.1612 123.109 49.1612C124.535 49.1612 125.618 48.958 126.339 47.5154C126.381 47.4332 126.417 47.3537 126.45 47.2767M126.45 47.2767C127.65 44.4431 123.256 45.0834 123.383 47.2411C123.418 47.829 125.991 47.5067 126.4 47.3021C126.417 47.2937 126.434 47.2852 126.45 47.2767ZM126.45 47.2767C127.602 46.6707 127.864 45.4726 128.595 44.498M78.3392 46.5952C78.0458 46.5952 77.762 46.5921 77.4917 46.5992M77.4917 46.5992C76.3192 46.6301 75.4011 46.8553 75.0627 48.3782C74.902 49.1016 74.763 51.6445 75.2608 52.1423C76.3744 53.2559 76.7051 52.9578 77.3665 52.3615C77.645 52.1104 77.9822 51.8064 78.4611 51.5328C78.8304 51.3218 78.9852 50.7935 79.0335 50.1579M77.4917 46.5992C78.0603 46.0247 78.8878 45.8471 78.8878 47.0067C78.8878 47.2493 78.9182 47.5899 78.9528 47.9774C79.0131 48.6516 79.086 49.468 79.0335 50.1579M77.4917 46.5992C77.1942 46.8998 76.9676 47.3092 76.9676 47.6925C76.9676 49.1768 77.0133 50.1612 78.7506 50.1612C78.8491 50.1612 78.9433 50.1602 79.0335 50.1579M79.0335 50.1579C80.5334 50.1196 80.9118 49.7322 80.8079 47.9668C80.7534 47.0391 79.4143 45.7393 78.8878 44.9494M59 128C78.7354 134.213 105.601 135.776 124.818 128.007C128.404 126.557 131.996 124.688 135.5 122.476M59 128C53.9777 132.701 49.9143 136.35 49.9143 144.465C49.9143 154.57 79.7351 163.949 88.4143 163.949C110.177 163.949 118.862 166.085 137.989 152.844C153.148 142.349 146.558 132.211 135.5 122.476M59 128C41.4444 122.474 20.8703 107.386 17.2307 88.3794C15.13 77.4087 16.9956 65.3504 19.5917 54.6773C25.4292 30.6789 56.0714 3.29566 64.5 8.79566C83.9837 -0.946211 97.5858 1.09062 118.414 6.77112C135.307 11.3783 160.082 26.6042 168.89 42.6178C174.803 53.369 171.513 70.0905 168.427 81.1112C163.914 97.2274 150.509 113.001 135.5 122.476M113.139 99.8198C109.9 103.435 106.537 107.189 101.914 108.449C90.9143 111.449 83.4143 107.949 74.913 102.175C71 119 101.787 122.169 107.735 118.424C116.156 113.122 118.661 104.32 118.661 94.6753C118.661 93.4005 117.038 95.396 116.144 96.4961C115.924 96.7661 115.749 96.9821 115.652 97.0826C114.862 97.9006 114.082 98.767 113.296 99.644M113.139 99.8198C113.191 99.7613 113.244 99.7024 113.296 99.644M113.139 99.8198L113.296 99.644M128.915 74.2543C134.757 75.5525 141.28 74.1247 145.937 70.3987C157.413 61.2177 154.198 42.785 143.88 34.3426C138.356 29.8231 134.003 29.5705 124.252 32.2853C114.5 35 109.014 50.7802 111.572 59.9903C113.62 67.3618 121.926 72.7012 128.915 74.2543Z" stroke="black" stroke-width="3" stroke-linecap="round"/>
</svg>
